<?xml version="1.0" encoding="utf-8"?>
<!-- Generator: Adobe Illustrator 16.0.0, SVG Export Plug-In . SVG Version: 6.00 Build 0)  -->
<!DOCTYPE svg PUBLIC "-//W3C//DTD SVG 1.1//EN" "http://www.w3.org/Graphics/SVG/1.1/DTD/svg11.dtd">
<svg version="1.1" id="Layer_1" xmlns="http://www.w3.org/2000/svg" xmlns:xlink="http://www.w3.org/1999/xlink" x="0px" y="0px"
	 width="1280px" height="800px" viewBox="0 0 1280 800" enable-background="new 0 0 1280 800" xml:space="preserve">
<g>
	<g>
		<polygon fill="none" stroke="#EFAA1F" stroke-width="0.25" stroke-miterlimit="10" points="791.361,195.107 694.38,159.034 
			694.38,29.06 791.361,65.133 		"/>
		<polygon fill="none" stroke="#EFAA1F" stroke-width="0.25" stroke-miterlimit="10" points="791.361,65.185 694.38,29.112 
			720.699,17.055 817.679,53.125 		"/>
		<polygon fill="none" stroke="#EFAA1F" stroke-width="0.25" stroke-miterlimit="10" points="791.361,194.756 694.38,158.683 
			720.699,146.626 817.679,182.7 		"/>
		<polygon fill="none" stroke="#EFAA1F" stroke-width="0.25" stroke-miterlimit="10" points="817.521,182.713 791.361,195.441 
			791.361,66.243 817.521,53.513 		"/>
		
			<line fill="none" stroke="#EFAA1F" stroke-width="0.25" stroke-miterlimit="10" x1="720.654" y1="17.423" x2="720.654" y2="146.408"/>
	</g>
	<g>
		<polygon fill="none" stroke="#EFAA1F" stroke-width="0.25" stroke-miterlimit="10" points="1244.94,68.398 1339.024,25.329 
			1430.932,117.235 1336.846,160.304 		"/>
		<polygon fill="none" stroke="#EFAA1F" stroke-width="0.25" stroke-miterlimit="10" points="1336.812,160.267 1430.893,117.199 
			1420.809,144.334 1326.727,187.404 		"/>
		<polygon fill="none" stroke="#EFAA1F" stroke-width="0.25" stroke-miterlimit="10" points="1245.187,68.647 1339.272,25.577 
			1329.186,52.714 1235.106,95.781 		"/>
		<polygon fill="none" stroke="#EFAA1F" stroke-width="0.25" stroke-miterlimit="10" points="1235.206,95.659 1244.705,68.162 
			1336.062,159.52 1326.566,187.019 		"/>
		
			<line fill="none" stroke="#EFAA1F" stroke-width="0.25" stroke-miterlimit="10" x1="1420.581" y1="144.042" x2="1329.374" y2="52.836"/>
	</g>
	<g>
		<polygon fill="none" stroke="#EFAA1F" stroke-width="0.25" stroke-miterlimit="10" points="1035.814,141.58 1071.886,44.599 
			1201.861,44.599 1165.788,141.58 		"/>
		<polygon fill="none" stroke="#EFAA1F" stroke-width="0.25" stroke-miterlimit="10" points="1165.736,141.58 1201.81,44.599 
			1213.867,70.918 1177.796,167.897 		"/>
		<polygon fill="none" stroke="#EFAA1F" stroke-width="0.25" stroke-miterlimit="10" points="1036.165,141.58 1072.24,44.599 
			1084.296,70.918 1048.223,167.897 		"/>
		<polygon fill="none" stroke="#EFAA1F" stroke-width="0.25" stroke-miterlimit="10" points="1048.209,167.739 1035.479,141.58 
			1164.68,141.58 1177.409,167.739 		"/>
		
			<line fill="none" stroke="#EFAA1F" stroke-width="0.25" stroke-miterlimit="10" x1="1213.498" y1="70.873" x2="1084.514" y2="70.873"/>
	</g>
	<g>
		<polygon fill="none" stroke="#EFAA1F" stroke-width="0.25" stroke-miterlimit="10" points="894.358,194.064 851.288,99.981 
			943.196,8.074 986.262,102.158 		"/>
		<polygon fill="none" stroke="#EFAA1F" stroke-width="0.25" stroke-miterlimit="10" points="986.228,102.193 943.159,8.111 
			970.293,18.197 1013.361,112.277 		"/>
		<polygon fill="none" stroke="#EFAA1F" stroke-width="0.25" stroke-miterlimit="10" points="894.605,193.816 851.537,99.731 
			878.673,109.817 921.739,203.899 		"/>
		<polygon fill="none" stroke="#EFAA1F" stroke-width="0.25" stroke-miterlimit="10" points="921.62,203.796 894.119,194.299 
			985.479,102.943 1012.977,112.438 		"/>
		
			<line fill="none" stroke="#EFAA1F" stroke-width="0.25" stroke-miterlimit="10" x1="969.999" y1="18.424" x2="878.794" y2="109.63"/>
	</g>
	<g>
		<polygon fill="none" stroke="#EFAA1F" stroke-width="0.25" stroke-miterlimit="10" points="791.361,385.443 694.38,349.37 
			694.38,219.395 791.361,255.468 		"/>
		<polygon fill="none" stroke="#EFAA1F" stroke-width="0.25" stroke-miterlimit="10" points="791.361,255.519 694.38,219.446 
			720.699,207.39 817.679,243.46 		"/>
		<polygon fill="none" stroke="#EFAA1F" stroke-width="0.25" stroke-miterlimit="10" points="791.361,385.091 694.38,349.018 
			720.699,336.961 817.679,373.035 		"/>
		<polygon fill="none" stroke="#EFAA1F" stroke-width="0.25" stroke-miterlimit="10" points="817.521,373.047 791.361,385.776 
			791.361,256.578 817.521,243.847 		"/>
		
			<line fill="none" stroke="#EFAA1F" stroke-width="0.25" stroke-miterlimit="10" x1="720.654" y1="207.758" x2="720.654" y2="336.743"/>
	</g>
	<g>
		<polygon fill="none" stroke="#EFAA1F" stroke-width="0.25" stroke-miterlimit="10" points="1244.696,258.731 1338.782,215.665 
			1430.688,307.571 1336.604,350.638 		"/>
		<polygon fill="none" stroke="#EFAA1F" stroke-width="0.25" stroke-miterlimit="10" points="1336.567,350.6 1430.648,307.534 
			1420.562,334.669 1326.484,377.737 		"/>
		<polygon fill="none" stroke="#EFAA1F" stroke-width="0.25" stroke-miterlimit="10" points="1244.947,258.98 1339.03,215.914 
			1328.943,243.047 1234.862,286.115 		"/>
		<polygon fill="none" stroke="#EFAA1F" stroke-width="0.25" stroke-miterlimit="10" points="1234.964,285.995 1244.463,258.495 
			1335.817,349.853 1326.32,377.352 		"/>
		
			<line fill="none" stroke="#EFAA1F" stroke-width="0.25" stroke-miterlimit="10" x1="1420.335" y1="334.376" x2="1329.129" y2="243.17"/>
	</g>
	<g>
		<polygon fill="none" stroke="#EFAA1F" stroke-width="0.25" stroke-miterlimit="10" points="1036.174,331.914 1072.251,234.933 
			1202.225,234.933 1166.151,331.914 		"/>
		<polygon fill="none" stroke="#EFAA1F" stroke-width="0.25" stroke-miterlimit="10" points="1166.098,331.914 1202.173,234.933 
			1214.229,261.252 1178.157,358.232 		"/>
		<polygon fill="none" stroke="#EFAA1F" stroke-width="0.25" stroke-miterlimit="10" points="1036.527,331.914 1072.602,234.933 
			1084.656,261.252 1048.583,358.232 		"/>
		<polygon fill="none" stroke="#EFAA1F" stroke-width="0.25" stroke-miterlimit="10" points="1048.57,358.074 1035.843,331.914 
			1165.041,331.914 1177.771,358.074 		"/>
		
			<line fill="none" stroke="#EFAA1F" stroke-width="0.25" stroke-miterlimit="10" x1="1213.86" y1="261.208" x2="1084.875" y2="261.208"/>
	</g>
	<g>
		<polygon fill="none" stroke="#EFAA1F" stroke-width="0.25" stroke-miterlimit="10" points="791.361,575.589 694.38,539.516 
			694.38,409.541 791.361,445.614 		"/>
		<polygon fill="none" stroke="#EFAA1F" stroke-width="0.25" stroke-miterlimit="10" points="791.361,445.665 694.38,409.592 
			720.699,397.536 817.679,433.606 		"/>
		<polygon fill="none" stroke="#EFAA1F" stroke-width="0.25" stroke-miterlimit="10" points="791.361,575.236 694.38,539.164 
			720.699,527.107 817.679,563.181 		"/>
		<polygon fill="none" stroke="#EFAA1F" stroke-width="0.25" stroke-miterlimit="10" points="817.521,563.193 791.361,575.921 
			791.361,446.725 817.521,433.993 		"/>
		
			<line fill="none" stroke="#EFAA1F" stroke-width="0.25" stroke-miterlimit="10" x1="720.654" y1="397.905" x2="720.654" y2="526.89"/>
	</g>
	<g>
		<polygon fill="none" stroke="#EFAA1F" stroke-width="0.25" stroke-miterlimit="10" points="1244.938,448.878 1339.021,405.811 
			1430.928,497.716 1336.842,540.783 		"/>
		<polygon fill="none" stroke="#EFAA1F" stroke-width="0.25" stroke-miterlimit="10" points="1336.807,540.748 1430.891,497.68 
			1420.804,524.817 1326.723,567.884 		"/>
		<polygon fill="none" stroke="#EFAA1F" stroke-width="0.25" stroke-miterlimit="10" points="1245.185,449.126 1339.269,406.058 
			1329.184,433.194 1235.1,476.262 		"/>
		<polygon fill="none" stroke="#EFAA1F" stroke-width="0.25" stroke-miterlimit="10" points="1235.203,476.141 1244.7,448.644 
			1336.06,539.999 1326.562,567.497 		"/>
		
			<line fill="none" stroke="#EFAA1F" stroke-width="0.25" stroke-miterlimit="10" x1="1420.574" y1="524.522" x2="1329.371" y2="433.316"/>
	</g>
	<g>
		<polygon fill="none" stroke="#EFAA1F" stroke-width="0.25" stroke-miterlimit="10" points="893.752,574.545 850.682,480.461 
			942.589,388.555 985.657,482.639 		"/>
		<polygon fill="none" stroke="#EFAA1F" stroke-width="0.25" stroke-miterlimit="10" points="985.622,482.674 942.553,388.592 
			969.69,398.677 1012.756,492.758 		"/>
		<polygon fill="none" stroke="#EFAA1F" stroke-width="0.25" stroke-miterlimit="10" points="894,574.296 850.932,480.213 
			878.068,490.298 921.134,584.381 		"/>
		<polygon fill="none" stroke="#EFAA1F" stroke-width="0.25" stroke-miterlimit="10" points="921.013,584.277 893.519,574.78 
			984.873,483.424 1012.372,492.92 		"/>
		
			<line fill="none" stroke="#EFAA1F" stroke-width="0.25" stroke-miterlimit="10" x1="969.396" y1="398.906" x2="878.189" y2="490.111"/>
	</g>
	<g>
		<polygon fill="none" stroke="#EFAA1F" stroke-width="0.25" stroke-miterlimit="10" points="791.361,765.761 694.38,729.688 
			694.38,599.714 791.361,635.785 		"/>
		<polygon fill="none" stroke="#EFAA1F" stroke-width="0.25" stroke-miterlimit="10" points="791.361,635.839 694.38,599.765 
			720.699,587.71 817.679,623.78 		"/>
		<polygon fill="none" stroke="#EFAA1F" stroke-width="0.25" stroke-miterlimit="10" points="791.361,765.409 694.38,729.337 
			720.699,717.28 817.679,753.354 		"/>
		<polygon fill="none" stroke="#EFAA1F" stroke-width="0.25" stroke-miterlimit="10" points="817.521,753.366 791.361,766.095 
			791.361,636.897 817.521,624.167 		"/>
		
			<line fill="none" stroke="#EFAA1F" stroke-width="0.25" stroke-miterlimit="10" x1="720.654" y1="588.077" x2="720.654" y2="717.062"/>
	</g>
	<g>
		<polygon fill="none" stroke="#EFAA1F" stroke-width="0.25" stroke-miterlimit="10" points="1035.934,712.233 1072.007,615.252 
			1201.98,615.252 1165.907,712.233 		"/>
		<polygon fill="none" stroke="#EFAA1F" stroke-width="0.25" stroke-miterlimit="10" points="1165.857,712.233 1201.929,615.252 
			1213.984,641.571 1177.915,738.551 		"/>
		<polygon fill="none" stroke="#EFAA1F" stroke-width="0.25" stroke-miterlimit="10" points="1036.283,712.233 1072.359,615.252 
			1084.415,641.571 1048.342,738.551 		"/>
		<polygon fill="none" stroke="#EFAA1F" stroke-width="0.25" stroke-miterlimit="10" points="1048.328,738.392 1035.601,712.233 
			1164.796,712.233 1177.528,738.392 		"/>
		
			<line fill="none" stroke="#EFAA1F" stroke-width="0.25" stroke-miterlimit="10" x1="1213.616" y1="641.526" x2="1084.633" y2="641.526"/>
	</g>
	<g>
		<polygon fill="none" stroke="#EFAA1F" stroke-width="0.25" stroke-miterlimit="10" points="893.752,764.718 850.682,670.633 
			942.589,578.728 985.655,672.81 		"/>
		<polygon fill="none" stroke="#EFAA1F" stroke-width="0.25" stroke-miterlimit="10" points="985.62,672.848 942.553,578.764 
			969.687,588.85 1012.756,682.93 		"/>
		<polygon fill="none" stroke="#EFAA1F" stroke-width="0.25" stroke-miterlimit="10" points="893.998,764.469 850.93,670.386 
			878.063,680.471 921.134,774.554 		"/>
		<polygon fill="none" stroke="#EFAA1F" stroke-width="0.25" stroke-miterlimit="10" points="921.013,774.448 893.516,764.952 
			984.873,673.598 1012.367,683.092 		"/>
		
			<line fill="none" stroke="#EFAA1F" stroke-width="0.25" stroke-miterlimit="10" x1="969.393" y1="589.078" x2="878.187" y2="680.284"/>
	</g>
	<g>
		<polygon fill="none" stroke="#EFAA1F" stroke-width="0.25" stroke-miterlimit="10" points="1244.791,639.165 1338.875,596.099 
			1430.782,688.003 1336.697,731.072 		"/>
		<polygon fill="none" stroke="#EFAA1F" stroke-width="0.25" stroke-miterlimit="10" points="1336.662,731.034 1430.744,687.968 
			1420.657,715.101 1326.577,758.172 		"/>
		<polygon fill="none" stroke="#EFAA1F" stroke-width="0.25" stroke-miterlimit="10" points="1245.04,639.415 1339.123,596.346 
			1329.036,623.481 1234.955,666.549 		"/>
		<polygon fill="none" stroke="#EFAA1F" stroke-width="0.25" stroke-miterlimit="10" points="1235.057,666.428 1244.554,638.93 
			1335.912,730.286 1326.415,757.784 		"/>
		
			<line fill="none" stroke="#EFAA1F" stroke-width="0.25" stroke-miterlimit="10" x1="1420.43" y1="714.81" x2="1329.225" y2="623.604"/>
	</g>
	<g>
		<polygon fill="none" stroke="#EFAA1F" stroke-width="0.25" stroke-miterlimit="10" points="1034.576,520.607 1070.65,423.627 
			1200.623,423.627 1164.55,520.607 		"/>
		<polygon fill="none" stroke="#EFAA1F" stroke-width="0.25" stroke-miterlimit="10" points="1164.5,520.607 1200.571,423.627 
			1212.627,449.946 1176.558,546.926 		"/>
		<polygon fill="none" stroke="#EFAA1F" stroke-width="0.25" stroke-miterlimit="10" points="1034.927,520.607 1071,423.627 
			1083.056,449.946 1046.982,546.926 		"/>
		<polygon fill="none" stroke="#EFAA1F" stroke-width="0.25" stroke-miterlimit="10" points="1046.969,546.767 1034.242,520.607 
			1163.439,520.607 1176.171,546.767 		"/>
		
			<line fill="none" stroke="#EFAA1F" stroke-width="0.25" stroke-miterlimit="10" x1="1212.26" y1="449.9" x2="1083.273" y2="449.9"/>
	</g>
	<g>
		<polygon fill="none" stroke="#EFAA1F" stroke-width="0.25" stroke-miterlimit="10" points="893.704,384.116 850.636,290.034 
			942.541,198.128 985.609,292.211 		"/>
		<polygon fill="none" stroke="#EFAA1F" stroke-width="0.25" stroke-miterlimit="10" points="985.575,292.247 942.507,198.164 
			969.643,208.25 1012.709,302.329 		"/>
		<polygon fill="none" stroke="#EFAA1F" stroke-width="0.25" stroke-miterlimit="10" points="893.952,383.868 850.885,289.785 
			878.021,299.872 921.086,393.952 		"/>
		<polygon fill="none" stroke="#EFAA1F" stroke-width="0.25" stroke-miterlimit="10" points="920.968,393.85 893.469,384.353 
			984.825,292.996 1012.326,302.491 		"/>
		
			<line fill="none" stroke="#EFAA1F" stroke-width="0.25" stroke-miterlimit="10" x1="969.349" y1="208.479" x2="878.142" y2="299.685"/>
	</g>
	<g>
		<polygon fill="none" stroke="#EFAA1F" stroke-width="0.25" stroke-miterlimit="10" points="27.768,195.107 -69.215,159.034 
			-69.215,29.06 27.768,65.133 		"/>
		<polygon fill="none" stroke="#EFAA1F" stroke-width="0.25" stroke-miterlimit="10" points="27.768,65.185 -69.215,29.112 
			-42.896,17.055 54.084,53.125 		"/>
		<polygon fill="none" stroke="#EFAA1F" stroke-width="0.25" stroke-miterlimit="10" points="27.768,194.756 -69.215,158.683 
			-42.896,146.626 54.084,182.7 		"/>
		<polygon fill="none" stroke="#EFAA1F" stroke-width="0.25" stroke-miterlimit="10" points="53.925,182.713 27.768,195.441 
			27.768,66.243 53.925,53.513 		"/>
		
			<line fill="none" stroke="#EFAA1F" stroke-width="0.25" stroke-miterlimit="10" x1="-42.941" y1="17.423" x2="-42.941" y2="146.408"/>
	</g>
	<g>
		<polygon fill="none" stroke="#EFAA1F" stroke-width="0.25" stroke-miterlimit="10" points="481.347,68.398 575.43,25.329 
			667.337,117.235 573.251,160.304 		"/>
		<polygon fill="none" stroke="#EFAA1F" stroke-width="0.25" stroke-miterlimit="10" points="573.217,160.267 667.301,117.199 
			657.213,144.334 563.134,187.404 		"/>
		<polygon fill="none" stroke="#EFAA1F" stroke-width="0.25" stroke-miterlimit="10" points="481.594,68.647 575.679,25.577 
			565.594,52.714 471.511,95.781 		"/>
		<polygon fill="none" stroke="#EFAA1F" stroke-width="0.25" stroke-miterlimit="10" points="471.612,95.659 481.112,68.162 
			572.468,159.52 562.972,187.019 		"/>
		
			<line fill="none" stroke="#EFAA1F" stroke-width="0.25" stroke-miterlimit="10" x1="656.986" y1="144.042" x2="565.781" y2="52.836"/>
	</g>
	<g>
		<polygon fill="none" stroke="#EFAA1F" stroke-width="0.25" stroke-miterlimit="10" points="272.221,141.58 308.294,44.599 
			438.269,44.599 402.195,141.58 		"/>
		<polygon fill="none" stroke="#EFAA1F" stroke-width="0.25" stroke-miterlimit="10" points="402.145,141.58 438.218,44.599 
			450.272,70.918 414.202,167.897 		"/>
		<polygon fill="none" stroke="#EFAA1F" stroke-width="0.25" stroke-miterlimit="10" points="272.572,141.58 308.646,44.599 
			320.701,70.918 284.627,167.897 		"/>
		<polygon fill="none" stroke="#EFAA1F" stroke-width="0.25" stroke-miterlimit="10" points="284.616,167.739 271.886,141.58 
			401.086,141.58 413.816,167.739 		"/>
		
			<line fill="none" stroke="#EFAA1F" stroke-width="0.25" stroke-miterlimit="10" x1="449.903" y1="70.873" x2="320.919" y2="70.873"/>
	</g>
	<g>
		<polygon fill="none" stroke="#EFAA1F" stroke-width="0.25" stroke-miterlimit="10" points="130.765,194.064 87.695,99.981 
			179.602,8.074 222.668,102.158 		"/>
		<polygon fill="none" stroke="#EFAA1F" stroke-width="0.25" stroke-miterlimit="10" points="222.634,102.193 179.565,8.111 
			206.699,18.197 249.768,112.277 		"/>
		<polygon fill="none" stroke="#EFAA1F" stroke-width="0.25" stroke-miterlimit="10" points="131.011,193.816 87.944,99.731 
			115.079,109.817 158.145,203.899 		"/>
		<polygon fill="none" stroke="#EFAA1F" stroke-width="0.25" stroke-miterlimit="10" points="158.025,203.796 130.527,194.299 
			221.886,102.943 249.382,112.438 		"/>
		
			<line fill="none" stroke="#EFAA1F" stroke-width="0.25" stroke-miterlimit="10" x1="206.406" y1="18.424" x2="115.2" y2="109.63"/>
	</g>
	<g>
		<polygon fill="none" stroke="#EFAA1F" stroke-width="0.25" stroke-miterlimit="10" points="27.768,385.443 -69.215,349.37 
			-69.215,219.395 27.768,255.468 		"/>
		<polygon fill="none" stroke="#EFAA1F" stroke-width="0.25" stroke-miterlimit="10" points="27.768,255.519 -69.215,219.446 
			-42.896,207.39 54.084,243.46 		"/>
		<polygon fill="none" stroke="#EFAA1F" stroke-width="0.25" stroke-miterlimit="10" points="27.768,385.091 -69.215,349.018 
			-42.896,336.961 54.084,373.035 		"/>
		<polygon fill="none" stroke="#EFAA1F" stroke-width="0.25" stroke-miterlimit="10" points="53.925,373.047 27.768,385.776 
			27.768,256.578 53.925,243.847 		"/>
		
			<line fill="none" stroke="#EFAA1F" stroke-width="0.25" stroke-miterlimit="10" x1="-42.941" y1="207.758" x2="-42.941" y2="336.743"/>
	</g>
	<g>
		<polygon fill="none" stroke="#EFAA1F" stroke-width="0.25" stroke-miterlimit="10" points="481.103,258.731 575.186,215.665 
			667.093,307.571 573.01,350.638 		"/>
		<polygon fill="none" stroke="#EFAA1F" stroke-width="0.25" stroke-miterlimit="10" points="572.973,350.6 667.057,307.534 
			656.969,334.669 562.89,377.737 		"/>
		<polygon fill="none" stroke="#EFAA1F" stroke-width="0.25" stroke-miterlimit="10" points="481.353,258.98 575.435,215.914 
			565.35,243.047 471.266,286.115 		"/>
		<polygon fill="none" stroke="#EFAA1F" stroke-width="0.25" stroke-miterlimit="10" points="471.369,285.995 480.867,258.495 
			572.224,349.853 562.728,377.352 		"/>
		
			<line fill="none" stroke="#EFAA1F" stroke-width="0.25" stroke-miterlimit="10" x1="656.74" y1="334.376" x2="565.537" y2="243.17"/>
	</g>
	<g>
		<polygon fill="none" stroke="#EFAA1F" stroke-width="0.25" stroke-miterlimit="10" points="272.581,331.914 308.654,234.933 
			438.629,234.933 402.555,331.914 		"/>
		<polygon fill="none" stroke="#EFAA1F" stroke-width="0.25" stroke-miterlimit="10" points="402.504,331.914 438.578,234.933 
			450.635,261.252 414.565,358.232 		"/>
		<polygon fill="none" stroke="#EFAA1F" stroke-width="0.25" stroke-miterlimit="10" points="272.933,331.914 309.006,234.933 
			321.063,261.252 284.99,358.232 		"/>
		<polygon fill="none" stroke="#EFAA1F" stroke-width="0.25" stroke-miterlimit="10" points="284.976,358.074 272.249,331.914 
			401.446,331.914 414.176,358.074 		"/>
		
			<line fill="none" stroke="#EFAA1F" stroke-width="0.25" stroke-miterlimit="10" x1="450.267" y1="261.208" x2="321.282" y2="261.208"/>
	</g>
	<g>
		<polygon fill="none" stroke="#EFAA1F" stroke-width="0.25" stroke-miterlimit="10" points="27.768,575.589 -69.215,539.516 
			-69.215,409.541 27.768,445.614 		"/>
		<polygon fill="none" stroke="#EFAA1F" stroke-width="0.25" stroke-miterlimit="10" points="27.768,445.665 -69.215,409.592 
			-42.896,397.536 54.084,433.606 		"/>
		<polygon fill="none" stroke="#EFAA1F" stroke-width="0.25" stroke-miterlimit="10" points="27.768,575.236 -69.215,539.164 
			-42.896,527.107 54.084,563.181 		"/>
		<polygon fill="none" stroke="#EFAA1F" stroke-width="0.25" stroke-miterlimit="10" points="53.925,563.193 27.768,575.921 
			27.768,446.725 53.925,433.993 		"/>
		
			<line fill="none" stroke="#EFAA1F" stroke-width="0.25" stroke-miterlimit="10" x1="-42.941" y1="397.905" x2="-42.941" y2="526.89"/>
	</g>
	<g>
		<polygon fill="none" stroke="#EFAA1F" stroke-width="0.25" stroke-miterlimit="10" points="481.344,448.878 575.427,405.811 
			667.332,497.716 573.248,540.783 		"/>
		<polygon fill="none" stroke="#EFAA1F" stroke-width="0.25" stroke-miterlimit="10" points="573.214,540.748 667.298,497.68 
			657.211,524.817 563.131,567.884 		"/>
		<polygon fill="none" stroke="#EFAA1F" stroke-width="0.25" stroke-miterlimit="10" points="481.59,449.126 575.676,406.058 
			565.59,433.194 471.508,476.262 		"/>
		<polygon fill="none" stroke="#EFAA1F" stroke-width="0.25" stroke-miterlimit="10" points="471.61,476.141 481.108,448.644 
			572.465,539.999 562.97,567.497 		"/>
		
			<line fill="none" stroke="#EFAA1F" stroke-width="0.25" stroke-miterlimit="10" x1="656.982" y1="524.522" x2="565.778" y2="433.316"/>
	</g>
	<g>
		<polygon fill="none" stroke="#EFAA1F" stroke-width="0.25" stroke-miterlimit="10" points="130.157,574.545 87.088,480.461 
			178.994,388.555 222.064,482.639 		"/>
		<polygon fill="none" stroke="#EFAA1F" stroke-width="0.25" stroke-miterlimit="10" points="222.028,482.674 178.958,388.592 
			206.094,398.677 249.164,492.758 		"/>
		<polygon fill="none" stroke="#EFAA1F" stroke-width="0.25" stroke-miterlimit="10" points="130.407,574.296 87.337,480.213 
			114.474,490.298 157.541,584.381 		"/>
		<polygon fill="none" stroke="#EFAA1F" stroke-width="0.25" stroke-miterlimit="10" points="157.419,584.277 129.922,574.78 
			221.278,483.424 248.778,492.92 		"/>
		
			<line fill="none" stroke="#EFAA1F" stroke-width="0.25" stroke-miterlimit="10" x1="205.802" y1="398.906" x2="114.596" y2="490.111"/>
	</g>
	<g>
		<polygon fill="none" stroke="#EFAA1F" stroke-width="0.25" stroke-miterlimit="10" points="27.768,765.761 -69.215,729.688 
			-69.215,599.714 27.768,635.785 		"/>
		<polygon fill="none" stroke="#EFAA1F" stroke-width="0.25" stroke-miterlimit="10" points="27.768,635.839 -69.215,599.765 
			-42.896,587.71 54.084,623.78 		"/>
		<polygon fill="none" stroke="#EFAA1F" stroke-width="0.25" stroke-miterlimit="10" points="27.768,765.409 -69.215,729.337 
			-42.896,717.28 54.084,753.354 		"/>
		<polygon fill="none" stroke="#EFAA1F" stroke-width="0.25" stroke-miterlimit="10" points="53.925,753.366 27.768,766.095 
			27.768,636.897 53.925,624.167 		"/>
		
			<line fill="none" stroke="#EFAA1F" stroke-width="0.25" stroke-miterlimit="10" x1="-42.941" y1="588.077" x2="-42.941" y2="717.062"/>
	</g>
	<g>
		<polygon fill="none" stroke="#EFAA1F" stroke-width="0.25" stroke-miterlimit="10" points="272.34,712.233 308.413,615.252 
			438.388,615.252 402.315,712.233 		"/>
		<polygon fill="none" stroke="#EFAA1F" stroke-width="0.25" stroke-miterlimit="10" points="402.263,712.233 438.336,615.252 
			450.391,641.571 414.321,738.551 		"/>
		<polygon fill="none" stroke="#EFAA1F" stroke-width="0.25" stroke-miterlimit="10" points="272.692,712.233 308.765,615.252 
			320.82,641.571 284.746,738.551 		"/>
		<polygon fill="none" stroke="#EFAA1F" stroke-width="0.25" stroke-miterlimit="10" points="284.735,738.392 272.005,712.233 
			401.205,712.233 413.935,738.392 		"/>
		
			<line fill="none" stroke="#EFAA1F" stroke-width="0.25" stroke-miterlimit="10" x1="450.022" y1="641.526" x2="321.038" y2="641.526"/>
	</g>
	<g>
		<polygon fill="none" stroke="#EFAA1F" stroke-width="0.25" stroke-miterlimit="10" points="130.157,764.718 87.088,670.633 
			178.994,578.728 222.061,672.81 		"/>
		<polygon fill="none" stroke="#EFAA1F" stroke-width="0.25" stroke-miterlimit="10" points="222.028,672.848 178.958,578.764 
			206.094,588.85 249.164,682.93 		"/>
		<polygon fill="none" stroke="#EFAA1F" stroke-width="0.25" stroke-miterlimit="10" points="130.405,764.469 87.337,670.386 
			114.471,680.471 157.541,774.554 		"/>
		<polygon fill="none" stroke="#EFAA1F" stroke-width="0.25" stroke-miterlimit="10" points="157.419,774.448 129.922,764.952 
			221.278,673.598 248.775,683.092 		"/>
		
			<line fill="none" stroke="#EFAA1F" stroke-width="0.25" stroke-miterlimit="10" x1="205.8" y1="589.078" x2="114.593" y2="680.284"/>
	</g>
	<g>
		<polygon fill="none" stroke="#EFAA1F" stroke-width="0.25" stroke-miterlimit="10" points="481.196,639.165 575.278,596.099 
			667.186,688.003 573.103,731.072 		"/>
		<polygon fill="none" stroke="#EFAA1F" stroke-width="0.25" stroke-miterlimit="10" points="573.066,731.034 667.148,687.968 
			657.064,715.101 562.984,758.172 		"/>
		<polygon fill="none" stroke="#EFAA1F" stroke-width="0.25" stroke-miterlimit="10" points="481.447,639.415 575.529,596.346 
			565.443,623.481 471.361,666.549 		"/>
		<polygon fill="none" stroke="#EFAA1F" stroke-width="0.25" stroke-miterlimit="10" points="471.466,666.428 480.961,638.93 
			572.317,730.286 562.822,757.784 		"/>
		
			<line fill="none" stroke="#EFAA1F" stroke-width="0.25" stroke-miterlimit="10" x1="656.838" y1="714.81" x2="565.63" y2="623.604"/>
	</g>
	<g>
		<polygon fill="none" stroke="#EFAA1F" stroke-width="0.25" stroke-miterlimit="10" points="270.981,520.607 307.054,423.627 
			437.028,423.627 400.955,520.607 		"/>
		<polygon fill="none" stroke="#EFAA1F" stroke-width="0.25" stroke-miterlimit="10" points="400.904,520.607 436.978,423.627 
			449.036,449.946 412.965,546.926 		"/>
		<polygon fill="none" stroke="#EFAA1F" stroke-width="0.25" stroke-miterlimit="10" points="271.333,520.607 307.406,423.627 
			319.463,449.946 283.39,546.926 		"/>
		<polygon fill="none" stroke="#EFAA1F" stroke-width="0.25" stroke-miterlimit="10" points="283.376,546.767 270.649,520.607 
			399.847,520.607 412.576,546.767 		"/>
		
			<line fill="none" stroke="#EFAA1F" stroke-width="0.25" stroke-miterlimit="10" x1="448.667" y1="449.9" x2="319.682" y2="449.9"/>
	</g>
	<g>
		<polygon fill="none" stroke="#EFAA1F" stroke-width="0.25" stroke-miterlimit="10" points="130.109,384.116 87.043,290.034 
			178.949,198.128 222.016,292.211 		"/>
		<polygon fill="none" stroke="#EFAA1F" stroke-width="0.25" stroke-miterlimit="10" points="221.979,292.247 178.913,198.164 
			206.046,208.25 249.116,302.329 		"/>
		<polygon fill="none" stroke="#EFAA1F" stroke-width="0.25" stroke-miterlimit="10" points="130.359,383.868 87.292,289.785 
			114.426,299.872 157.493,393.952 		"/>
		<polygon fill="none" stroke="#EFAA1F" stroke-width="0.25" stroke-miterlimit="10" points="157.373,393.85 129.874,384.353 
			221.233,292.996 248.73,302.491 		"/>
		
			<line fill="none" stroke="#EFAA1F" stroke-width="0.25" stroke-miterlimit="10" x1="205.754" y1="208.479" x2="114.548" y2="299.685"/>
	</g>
</g>
</svg>
