<?xml version="1.0" encoding="utf-8"?>
<!-- Generator: Adobe Illustrator 16.0.0, SVG Export Plug-In . SVG Version: 6.00 Build 0)  -->
<!DOCTYPE svg PUBLIC "-//W3C//DTD SVG 1.1//EN" "http://www.w3.org/Graphics/SVG/1.1/DTD/svg11.dtd">
<svg version="1.1" id="Layer_1" xmlns="http://www.w3.org/2000/svg" xmlns:xlink="http://www.w3.org/1999/xlink" x="0px" y="0px"
	 width="673.503px" height="693.38px" viewBox="0 0 673.503 693.38" enable-background="new 0 0 673.503 693.38"
	 xml:space="preserve">
<polygon fill="none" stroke="#E8E8E8" stroke-width="0.25" stroke-miterlimit="10" points="107.366,680.524 44.667,656.613 
	44.667,629.856 107.366,653.767 "/>
<polygon fill="none" stroke="#E8E8E8" stroke-width="0.25" stroke-miterlimit="10" points="205.049,630.825 142.35,606.915 
	142.35,580.157 205.049,604.068 "/>
<polygon fill="none" stroke="#E8E8E8" stroke-width="0.25" stroke-miterlimit="10" points="205.049,630.825 107.366,680.856 
	107.366,654.098 205.049,604.068 "/>
<polygon fill="none" stroke="#E8E8E8" stroke-width="0.25" stroke-miterlimit="10" points="142.35,606.915 44.667,656.947 
	44.667,630.188 142.35,580.157 "/>
<polygon fill="none" stroke="#E8E8E8" stroke-width="0.25" stroke-miterlimit="10" points="444.039,680.524 381.341,656.613 
	381.341,629.856 444.039,653.767 "/>
<polygon fill="none" stroke="#E8E8E8" stroke-width="0.25" stroke-miterlimit="10" points="541.722,630.825 444.039,680.856 
	444.039,654.098 541.722,604.068 "/>
<polygon fill="none" stroke="#E8E8E8" stroke-width="0.25" stroke-miterlimit="10" points="479.021,579.825 381.341,629.856 
	444.039,654.098 541.722,604.068 "/>
<polygon fill="none" stroke="#E8E8E8" stroke-width="0.25" stroke-miterlimit="10" points="173.698,573.484 76.018,623.514 
	107.366,654.098 205.049,604.068 "/>
<polygon fill="none" stroke="#E8E8E8" stroke-width="0.25" stroke-miterlimit="10" points="142.35,579.825 44.667,629.856 
	76.018,623.514 173.698,573.484 "/>
<polygon fill="none" stroke="#E8E8E8" stroke-width="0.25" stroke-miterlimit="10" points="312.949,680.524 250.249,656.613 
	250.249,527.196 312.949,551.108 "/>
<polygon fill="none" stroke="#E8E8E8" stroke-width="0.25" stroke-miterlimit="10" points="312.949,551.159 250.249,527.247 
	276.455,515.243 339.153,539.151 "/>
<polygon fill="none" stroke="#E8E8E8" stroke-width="0.25" stroke-miterlimit="10" points="312.949,680.175 250.249,656.264 
	276.455,644.26 339.153,668.171 "/>
<polygon fill="none" stroke="#E8E8E8" stroke-width="0.25" stroke-miterlimit="10" points="338.995,668.184 312.949,680.856 
	312.949,552.213 338.995,539.536 "/>
<polyline fill="none" stroke="#E8E8E8" stroke-width="0.25" stroke-miterlimit="10" points="315.794,517.938 338.995,539.536 
	338.995,668.184 "/>
<line fill="none" stroke="#E8E8E8" stroke-width="0.25" stroke-miterlimit="10" x1="315.794" y1="517.938" x2="276.409" y2="515.243"/>
<line fill="none" stroke="#E8E8E8" stroke-width="0.25" stroke-miterlimit="10" x1="315.794" y1="646.367" x2="338.995" y2="667.971"/>
<line fill="none" stroke="#E8E8E8" stroke-width="0.25" stroke-miterlimit="10" x1="315.794" y1="646.367" x2="276.409" y2="643.674"/>
<polygon fill="none" stroke="#E8E8E8" stroke-width="0.25" stroke-miterlimit="10" points="479.021,606.866 381.341,656.894 
	412.688,687.479 510.372,637.448 "/>
<polygon fill="none" stroke="#E8E8E8" stroke-width="0.25" stroke-miterlimit="10" points="510.372,637.448 412.688,687.479 
	444.039,681.135 541.722,631.107 "/>
<polygon fill="none" stroke="#E8E8E8" stroke-width="0.25" stroke-miterlimit="10" points="541.545,604.068 478.845,580.157 
	479.021,606.915 541.722,630.825 "/>
<line fill="none" stroke="#E8E8E8" stroke-width="0.25" stroke-miterlimit="10" x1="315.794" y1="517.938" x2="315.794" y2="646.367"/>
<line fill="none" stroke="#E8E8E8" stroke-width="0.25" stroke-miterlimit="10" x1="276.409" y1="515.61" x2="276.409" y2="644.042"/>
<polygon fill="none" stroke="#E8E8E8" stroke-width="0.25" stroke-miterlimit="10" points="647.247,680.524 584.548,656.613 
	584.548,527.196 647.247,551.108 "/>
<polygon fill="none" stroke="#E8E8E8" stroke-width="0.25" stroke-miterlimit="10" points="647.247,551.159 584.548,527.247 
	610.752,515.243 673.451,539.151 "/>
<polygon fill="none" stroke="#E8E8E8" stroke-width="0.25" stroke-miterlimit="10" points="647.247,680.175 584.548,656.264 
	610.752,644.26 673.451,668.171 "/>
<polygon fill="none" stroke="#E8E8E8" stroke-width="0.25" stroke-miterlimit="10" points="673.294,668.184 647.247,680.856 
	647.247,552.213 673.294,539.536 "/>
<line fill="none" stroke="#E8E8E8" stroke-width="0.25" stroke-miterlimit="10" x1="607.805" y1="677.844" x2="584.604" y2="656.245"/>
<line fill="none" stroke="#E8E8E8" stroke-width="0.25" stroke-miterlimit="10" x1="607.805" y1="677.844" x2="647.19" y2="680.539"/>
<line fill="none" stroke="#E8E8E8" stroke-width="0.25" stroke-miterlimit="10" x1="607.805" y1="548.993" x2="584.604" y2="527.391"/>
<line fill="none" stroke="#E8E8E8" stroke-width="0.25" stroke-miterlimit="10" x1="607.805" y1="548.993" x2="647.19" y2="551.688"/>
<line fill="none" stroke="#E8E8E8" stroke-width="0.25" stroke-miterlimit="10" x1="607.805" y1="549.411" x2="607.805" y2="677.844"/>
<line fill="none" stroke="#E8E8E8" stroke-width="0.25" stroke-miterlimit="10" x1="610.705" y1="515.61" x2="610.705" y2="644.042"/>
<polygon fill="none" stroke="#E8E8E8" stroke-width="0.25" stroke-miterlimit="10" points="274.08,375.861 336.78,399.773 
	336.78,426.53 274.08,402.62 "/>
<polygon fill="none" stroke="#E8E8E8" stroke-width="0.25" stroke-miterlimit="10" points="176.398,425.562 274.08,375.529 
	274.08,402.287 176.398,452.32 "/>
<polygon fill="none" stroke="#E8E8E8" stroke-width="0.25" stroke-miterlimit="10" points="239.098,476.561 336.78,426.53 
	274.08,402.287 176.398,452.32 "/>
<polygon fill="none" stroke="#E8E8E8" stroke-width="0.25" stroke-miterlimit="10" points="405.17,375.861 467.868,399.773 
	467.868,529.189 405.17,505.278 "/>
<polygon fill="none" stroke="#E8E8E8" stroke-width="0.25" stroke-miterlimit="10" points="405.17,505.229 467.868,529.141 
	441.665,541.145 378.964,517.235 "/>
<polygon fill="none" stroke="#E8E8E8" stroke-width="0.25" stroke-miterlimit="10" points="405.17,376.212 467.868,400.122 
	441.665,412.128 378.964,388.216 "/>
<polygon fill="none" stroke="#E8E8E8" stroke-width="0.25" stroke-miterlimit="10" points="379.123,388.205 405.17,375.529 
	405.17,504.175 379.123,516.851 "/>
<polyline fill="none" stroke="#E8E8E8" stroke-width="0.25" stroke-miterlimit="10" points="402.326,538.451 379.123,516.851 
	379.123,388.205 "/>
<line fill="none" stroke="#E8E8E8" stroke-width="0.25" stroke-miterlimit="10" x1="402.326" y1="538.451" x2="441.709" y2="541.145"/>
<line fill="none" stroke="#E8E8E8" stroke-width="0.25" stroke-miterlimit="10" x1="402.326" y1="410.02" x2="379.123" y2="388.417"/>
<line fill="none" stroke="#E8E8E8" stroke-width="0.25" stroke-miterlimit="10" x1="402.326" y1="410.02" x2="441.709" y2="412.714"/>
<polygon fill="none" stroke="#E8E8E8" stroke-width="0.25" stroke-miterlimit="10" points="239.098,449.522 336.78,399.493 
	305.431,368.908 207.748,418.94 "/>
<polygon fill="none" stroke="#E8E8E8" stroke-width="0.25" stroke-miterlimit="10" points="207.748,418.94 305.431,368.908 
	274.08,375.251 176.398,425.278 "/>
<polygon fill="none" stroke="#E8E8E8" stroke-width="0.25" stroke-miterlimit="10" points="176.574,452.32 239.272,476.231 
	239.098,449.471 176.398,425.562 "/>
<line fill="none" stroke="#E8E8E8" stroke-width="0.25" stroke-miterlimit="10" x1="402.326" y1="538.451" x2="402.326" y2="410.02"/>
<line fill="none" stroke="#E8E8E8" stroke-width="0.25" stroke-miterlimit="10" x1="441.709" y1="540.776" x2="441.709" y2="412.345"/>
<polygon fill="none" stroke="#E8E8E8" stroke-width="0.25" stroke-miterlimit="10" points="70.871,375.861 133.571,399.773 
	133.571,529.189 70.871,505.278 "/>
<polygon fill="none" stroke="#E8E8E8" stroke-width="0.25" stroke-miterlimit="10" points="70.871,505.229 133.571,529.141 
	107.366,541.145 44.667,517.235 "/>
<polygon fill="none" stroke="#E8E8E8" stroke-width="0.25" stroke-miterlimit="10" points="70.871,376.212 133.571,400.122 
	107.366,412.128 44.667,388.216 "/>
<polygon fill="none" stroke="#E8E8E8" stroke-width="0.25" stroke-miterlimit="10" points="44.825,388.205 70.871,375.529 
	70.871,504.175 44.825,516.851 "/>
<line fill="none" stroke="#E8E8E8" stroke-width="0.25" stroke-miterlimit="10" x1="110.312" y1="378.542" x2="133.515" y2="400.143"/>
<line fill="none" stroke="#E8E8E8" stroke-width="0.25" stroke-miterlimit="10" x1="110.312" y1="378.542" x2="70.928" y2="375.849"/>
<line fill="none" stroke="#E8E8E8" stroke-width="0.25" stroke-miterlimit="10" x1="110.312" y1="507.395" x2="133.515" y2="528.997"/>
<line fill="none" stroke="#E8E8E8" stroke-width="0.25" stroke-miterlimit="10" x1="110.312" y1="507.395" x2="70.928" y2="504.701"/>
<line fill="none" stroke="#E8E8E8" stroke-width="0.25" stroke-miterlimit="10" x1="110.312" y1="506.973" x2="110.312" y2="378.542"/>
<line fill="none" stroke="#E8E8E8" stroke-width="0.25" stroke-miterlimit="10" x1="107.412" y1="540.776" x2="107.412" y2="412.345"/>
<polygon fill="none" stroke="#E8E8E8" stroke-width="0.25" stroke-miterlimit="10" points="107.366,334.616 44.667,310.706 
	44.667,283.947 107.366,307.859 "/>
<polygon fill="none" stroke="#E8E8E8" stroke-width="0.25" stroke-miterlimit="10" points="205.049,284.92 142.35,261.009 
	142.35,234.25 205.049,258.161 "/>
<polygon fill="none" stroke="#E8E8E8" stroke-width="0.25" stroke-miterlimit="10" points="205.049,284.92 107.366,334.947 
	107.366,308.189 205.049,258.16 "/>
<polygon fill="none" stroke="#E8E8E8" stroke-width="0.25" stroke-miterlimit="10" points="142.35,261.009 44.667,311.038 
	44.667,284.279 142.35,234.25 "/>
<polygon fill="none" stroke="#E8E8E8" stroke-width="0.25" stroke-miterlimit="10" points="444.039,334.616 381.341,310.706 
	381.341,283.947 444.039,307.859 "/>
<polygon fill="none" stroke="#E8E8E8" stroke-width="0.25" stroke-miterlimit="10" points="541.722,284.92 444.039,334.947 
	444.039,308.189 541.722,258.16 "/>
<polygon fill="none" stroke="#E8E8E8" stroke-width="0.25" stroke-miterlimit="10" points="479.021,233.918 381.341,283.947 
	444.039,308.189 541.722,258.16 "/>
<polygon fill="none" stroke="#E8E8E8" stroke-width="0.25" stroke-miterlimit="10" points="173.698,227.576 76.018,277.606 
	107.366,308.189 205.049,258.16 "/>
<polygon fill="none" stroke="#E8E8E8" stroke-width="0.25" stroke-miterlimit="10" points="142.35,233.918 44.667,283.947 
	76.018,277.606 173.698,227.576 "/>
<polygon fill="none" stroke="#E8E8E8" stroke-width="0.25" stroke-miterlimit="10" points="312.949,334.616 250.249,310.706 
	250.249,181.288 312.949,205.198 "/>
<polygon fill="none" stroke="#E8E8E8" stroke-width="0.25" stroke-miterlimit="10" points="312.949,205.25 250.249,181.338 
	276.455,169.332 339.153,193.244 "/>
<polygon fill="none" stroke="#E8E8E8" stroke-width="0.25" stroke-miterlimit="10" points="312.949,334.269 250.249,310.357 
	276.455,298.351 339.153,322.263 "/>
<polygon fill="none" stroke="#E8E8E8" stroke-width="0.25" stroke-miterlimit="10" points="338.995,322.274 312.949,334.947 
	312.949,206.303 338.995,193.63 "/>
<polyline fill="none" stroke="#E8E8E8" stroke-width="0.25" stroke-miterlimit="10" points="315.794,172.027 338.995,193.63 
	338.995,322.274 "/>
<line fill="none" stroke="#E8E8E8" stroke-width="0.25" stroke-miterlimit="10" x1="315.794" y1="172.027" x2="276.409" y2="169.332"/>
<line fill="none" stroke="#E8E8E8" stroke-width="0.25" stroke-miterlimit="10" x1="315.794" y1="300.46" x2="338.995" y2="322.062"/>
<line fill="none" stroke="#E8E8E8" stroke-width="0.25" stroke-miterlimit="10" x1="315.794" y1="300.46" x2="276.409" y2="297.766"/>
<polygon fill="none" stroke="#E8E8E8" stroke-width="0.25" stroke-miterlimit="10" points="479.021,260.957 381.341,310.987 
	412.688,341.571 510.372,291.542 "/>
<polygon fill="none" stroke="#E8E8E8" stroke-width="0.25" stroke-miterlimit="10" points="510.372,291.542 412.688,341.571 
	444.039,335.229 541.722,285.199 "/>
<polygon fill="none" stroke="#E8E8E8" stroke-width="0.25" stroke-miterlimit="10" points="541.545,258.16 478.845,234.25 
	479.021,261.009 541.722,284.92 "/>
<line fill="none" stroke="#E8E8E8" stroke-width="0.25" stroke-miterlimit="10" x1="315.794" y1="172.027" x2="315.794" y2="300.46"/>
<line fill="none" stroke="#E8E8E8" stroke-width="0.25" stroke-miterlimit="10" x1="276.409" y1="169.702" x2="276.409" y2="298.135"/>
<polygon fill="none" stroke="#E8E8E8" stroke-width="0.25" stroke-miterlimit="10" points="647.247,334.616 584.548,310.706 
	584.548,181.288 647.247,205.198 "/>
<polygon fill="none" stroke="#E8E8E8" stroke-width="0.25" stroke-miterlimit="10" points="647.247,205.25 584.548,181.338 
	610.752,169.332 673.451,193.244 "/>
<polygon fill="none" stroke="#E8E8E8" stroke-width="0.25" stroke-miterlimit="10" points="647.247,334.269 584.548,310.357 
	610.752,298.351 673.451,322.263 "/>
<polygon fill="none" stroke="#E8E8E8" stroke-width="0.25" stroke-miterlimit="10" points="673.294,322.274 647.247,334.947 
	647.247,206.303 673.294,193.63 "/>
<line fill="none" stroke="#E8E8E8" stroke-width="0.25" stroke-miterlimit="10" x1="607.805" y1="331.937" x2="584.604" y2="310.333"/>
<line fill="none" stroke="#E8E8E8" stroke-width="0.25" stroke-miterlimit="10" x1="607.805" y1="331.937" x2="647.19" y2="334.631"/>
<line fill="none" stroke="#E8E8E8" stroke-width="0.25" stroke-miterlimit="10" x1="607.805" y1="203.084" x2="584.604" y2="181.481"/>
<line fill="none" stroke="#E8E8E8" stroke-width="0.25" stroke-miterlimit="10" x1="607.805" y1="203.084" x2="647.19" y2="205.781"/>
<line fill="none" stroke="#E8E8E8" stroke-width="0.25" stroke-miterlimit="10" x1="607.805" y1="203.503" x2="607.805" y2="331.937"/>
<line fill="none" stroke="#E8E8E8" stroke-width="0.25" stroke-miterlimit="10" x1="610.705" y1="169.702" x2="610.705" y2="298.135"/>
<polygon fill="none" stroke="#E8E8E8" stroke-width="0.25" stroke-miterlimit="10" points="610.752,29.955 673.451,53.864 
	673.451,80.624 610.752,56.713 "/>
<polygon fill="none" stroke="#E8E8E8" stroke-width="0.25" stroke-miterlimit="10" points="513.069,79.651 575.769,103.562 
	575.769,130.32 513.069,106.411 "/>
<polygon fill="none" stroke="#E8E8E8" stroke-width="0.25" stroke-miterlimit="10" points="513.069,79.651 610.752,29.622 
	610.752,56.382 513.069,106.411 "/>
<polygon fill="none" stroke="#E8E8E8" stroke-width="0.25" stroke-miterlimit="10" points="575.769,103.562 673.451,53.533 
	673.451,80.292 575.769,130.32 "/>
<polygon fill="none" stroke="#E8E8E8" stroke-width="0.25" stroke-miterlimit="10" points="274.08,29.955 336.78,53.864 
	336.78,80.624 274.08,56.713 "/>
<polygon fill="none" stroke="#E8E8E8" stroke-width="0.25" stroke-miterlimit="10" points="176.398,79.651 274.08,29.622 
	274.08,56.382 176.398,106.411 "/>
<polygon fill="none" stroke="#E8E8E8" stroke-width="0.25" stroke-miterlimit="10" points="239.098,130.653 336.78,80.624 
	274.08,56.382 176.398,106.411 "/>
<polygon fill="none" stroke="#E8E8E8" stroke-width="0.25" stroke-miterlimit="10" points="544.419,136.994 642.1,86.964 
	610.752,56.382 513.069,106.411 "/>
<polygon fill="none" stroke="#E8E8E8" stroke-width="0.25" stroke-miterlimit="10" points="575.769,130.653 673.451,80.624 
	642.1,86.964 544.419,136.994 "/>
<polygon fill="none" stroke="#E8E8E8" stroke-width="0.25" stroke-miterlimit="10" points="405.17,29.955 467.868,53.864 
	467.868,183.283 405.17,159.371 "/>
<polygon fill="none" stroke="#E8E8E8" stroke-width="0.25" stroke-miterlimit="10" points="405.17,159.323 467.868,183.232 
	441.665,195.238 378.964,171.326 "/>
<polygon fill="none" stroke="#E8E8E8" stroke-width="0.25" stroke-miterlimit="10" points="405.17,30.304 467.868,54.215 
	441.665,66.22 378.964,42.308 "/>
<polygon fill="none" stroke="#E8E8E8" stroke-width="0.25" stroke-miterlimit="10" points="379.123,42.296 405.17,29.622 
	405.17,158.267 379.123,170.939 "/>
<polyline fill="none" stroke="#E8E8E8" stroke-width="0.25" stroke-miterlimit="10" points="402.326,192.543 379.123,170.939 
	379.123,42.296 "/>
<line fill="none" stroke="#E8E8E8" stroke-width="0.25" stroke-miterlimit="10" x1="402.326" y1="192.543" x2="441.709" y2="195.238"/>
<line fill="none" stroke="#E8E8E8" stroke-width="0.25" stroke-miterlimit="10" x1="402.326" y1="64.111" x2="379.123" y2="42.508"/>
<line fill="none" stroke="#E8E8E8" stroke-width="0.25" stroke-miterlimit="10" x1="402.326" y1="64.111" x2="441.709" y2="66.805"/>
<polygon fill="none" stroke="#E8E8E8" stroke-width="0.25" stroke-miterlimit="10" points="239.098,103.614 336.78,53.585 
	305.431,23 207.748,73.029 "/>
<polygon fill="none" stroke="#E8E8E8" stroke-width="0.25" stroke-miterlimit="10" points="207.748,73.029 305.431,23 
	274.08,29.343 176.398,79.373 "/>
<polygon fill="none" stroke="#E8E8E8" stroke-width="0.25" stroke-miterlimit="10" points="176.574,106.411 239.272,130.32 
	239.098,103.562 176.398,79.651 "/>
<line fill="none" stroke="#E8E8E8" stroke-width="0.25" stroke-miterlimit="10" x1="402.326" y1="192.543" x2="402.326" y2="64.111"/>
<line fill="none" stroke="#E8E8E8" stroke-width="0.25" stroke-miterlimit="10" x1="441.709" y1="194.869" x2="441.709" y2="66.437"/>
<polygon fill="none" stroke="#E8E8E8" stroke-width="0.25" stroke-miterlimit="10" points="70.871,29.955 133.571,53.864 
	133.571,183.283 70.871,159.371 "/>
<polygon fill="none" stroke="#E8E8E8" stroke-width="0.25" stroke-miterlimit="10" points="70.871,159.323 133.571,183.232 
	107.366,195.238 44.667,171.326 "/>
<polygon fill="none" stroke="#E8E8E8" stroke-width="0.25" stroke-miterlimit="10" points="70.871,30.304 133.571,54.215 
	107.366,66.22 44.667,42.308 "/>
<polygon fill="none" stroke="#E8E8E8" stroke-width="0.25" stroke-miterlimit="10" points="44.825,42.296 70.871,29.622 
	70.871,158.267 44.825,170.939 "/>
<line fill="none" stroke="#E8E8E8" stroke-width="0.25" stroke-miterlimit="10" x1="110.312" y1="32.633" x2="133.515" y2="54.235"/>
<line fill="none" stroke="#E8E8E8" stroke-width="0.25" stroke-miterlimit="10" x1="110.312" y1="32.633" x2="70.928" y2="29.941"/>
<line fill="none" stroke="#E8E8E8" stroke-width="0.25" stroke-miterlimit="10" x1="110.312" y1="161.487" x2="133.515" y2="183.089"/>
<line fill="none" stroke="#E8E8E8" stroke-width="0.25" stroke-miterlimit="10" x1="110.312" y1="161.487" x2="70.928" y2="158.792"/>
<line fill="none" stroke="#E8E8E8" stroke-width="0.25" stroke-miterlimit="10" x1="110.312" y1="161.068" x2="110.312" y2="32.633"/>
<line fill="none" stroke="#E8E8E8" stroke-width="0.25" stroke-miterlimit="10" x1="107.412" y1="194.869" x2="107.412" y2="66.437"/>
<polygon fill="none" stroke="#E8E8E8" stroke-width="0.25" stroke-miterlimit="10" points="575.82,472.152 513.122,448.241 
	513.122,421.482 575.82,445.394 "/>
<polygon fill="none" stroke="#E8E8E8" stroke-width="0.25" stroke-miterlimit="10" points="673.503,422.456 575.82,472.481 
	575.82,445.726 673.503,395.695 "/>
<polygon fill="none" stroke="#E8E8E8" stroke-width="0.25" stroke-miterlimit="10" points="610.803,371.453 513.122,421.482 
	575.82,445.726 673.503,395.695 "/>
<polygon fill="none" stroke="#E8E8E8" stroke-width="0.25" stroke-miterlimit="10" points="610.803,398.492 513.122,448.523 
	544.471,479.107 642.151,429.077 "/>
<polygon fill="none" stroke="#E8E8E8" stroke-width="0.25" stroke-miterlimit="10" points="642.151,429.077 544.471,479.107 
	575.82,472.765 673.503,422.733 "/>
<polygon fill="none" stroke="#E8E8E8" stroke-width="0.25" stroke-miterlimit="10" points="673.326,395.695 610.627,371.785 
	610.803,398.544 673.503,422.456 "/>
</svg>
