<?xml version="1.0" encoding="utf-8"?>
<!-- Generator: Adobe Illustrator 16.0.0, SVG Export Plug-In . SVG Version: 6.00 Build 0)  -->
<!DOCTYPE svg PUBLIC "-//W3C//DTD SVG 1.1//EN" "http://www.w3.org/Graphics/SVG/1.1/DTD/svg11.dtd">
<svg version="1.1" id="Layer_1" xmlns="http://www.w3.org/2000/svg" xmlns:xlink="http://www.w3.org/1999/xlink" x="0px" y="0px"
	 width="1280px" height="800px" viewBox="0 0 1280 800" enable-background="new 0 0 1280 800" xml:space="preserve">
<polygon fill="none" stroke="#0E263A" stroke-width="0.25" stroke-miterlimit="10" points="169.669,896.438 78.621,861.715 
	78.621,822.857 169.669,857.58 "/>
<polygon fill="none" stroke="#0E263A" stroke-width="0.25" stroke-miterlimit="10" points="311.519,824.266 220.47,789.543 
	220.47,750.686 311.519,785.408 "/>
<polygon fill="none" stroke="#0E263A" stroke-width="0.25" stroke-miterlimit="10" points="311.519,824.266 169.669,896.92 
	169.669,858.059 311.519,785.408 "/>
<polygon fill="none" stroke="#0E263A" stroke-width="0.25" stroke-miterlimit="10" points="220.47,789.543 78.621,862.195 
	78.621,823.34 220.47,750.686 "/>
<polygon fill="none" stroke="#0E263A" stroke-width="0.25" stroke-miterlimit="10" points="658.568,896.438 567.521,861.715 
	567.521,822.857 658.568,857.58 "/>
<polygon fill="none" stroke="#0E263A" stroke-width="0.25" stroke-miterlimit="10" points="800.418,824.266 658.568,896.92 
	658.568,858.059 800.418,785.408 "/>
<polygon fill="none" stroke="#0E263A" stroke-width="0.25" stroke-miterlimit="10" points="709.367,750.205 567.521,822.857 
	658.568,858.059 800.418,785.408 "/>
<polygon fill="none" stroke="#0E263A" stroke-width="0.25" stroke-miterlimit="10" points="265.992,740.996 124.146,813.646 
	169.669,858.059 311.519,785.408 "/>
<polygon fill="none" stroke="#0E263A" stroke-width="0.25" stroke-miterlimit="10" points="220.47,750.205 78.621,822.857 
	124.146,813.646 265.992,740.996 "/>
<polygon fill="none" stroke="#0E263A" stroke-width="0.25" stroke-miterlimit="10" points="468.206,896.438 377.156,861.715 
	377.156,673.781 468.206,708.504 "/>
<polygon fill="none" stroke="#0E263A" stroke-width="0.25" stroke-miterlimit="10" points="468.206,708.576 377.156,673.854 
	415.21,656.422 506.258,691.143 "/>
<polygon fill="none" stroke="#0E263A" stroke-width="0.25" stroke-miterlimit="10" points="468.206,895.928 377.156,861.205 
	415.21,843.773 506.258,878.496 "/>
<polygon fill="none" stroke="#0E263A" stroke-width="0.25" stroke-miterlimit="10" points="506.028,878.514 468.206,896.92 
	468.206,710.107 506.028,691.701 "/>
<polyline fill="none" stroke="#0E263A" stroke-width="0.25" stroke-miterlimit="10" points="472.337,660.332 506.028,691.701 
	506.028,878.514 "/>
<line fill="none" stroke="#0E263A" stroke-width="0.25" stroke-miterlimit="10" x1="472.337" y1="660.332" x2="415.144" y2="656.422"/>
<line fill="none" stroke="#0E263A" stroke-width="0.25" stroke-miterlimit="10" x1="472.337" y1="846.832" x2="506.028" y2="878.205"/>
<line fill="none" stroke="#0E263A" stroke-width="0.25" stroke-miterlimit="10" x1="472.337" y1="846.832" x2="415.144" y2="842.924"/>
<polygon fill="none" stroke="#0E263A" stroke-width="0.25" stroke-miterlimit="10" points="709.367,789.473 567.521,862.119 
	613.042,906.535 754.891,833.883 "/>
<polygon fill="none" stroke="#0E263A" stroke-width="0.25" stroke-miterlimit="10" points="754.891,833.883 613.042,906.535 
	658.568,897.322 800.418,824.674 "/>
<polygon fill="none" stroke="#0E263A" stroke-width="0.25" stroke-miterlimit="10" points="800.161,785.408 709.11,750.686 
	709.367,789.543 800.418,824.266 "/>
<line fill="none" stroke="#0E263A" stroke-width="0.25" stroke-miterlimit="10" x1="472.337" y1="660.332" x2="472.337" y2="846.832"/>
<line fill="none" stroke="#0E263A" stroke-width="0.25" stroke-miterlimit="10" x1="415.144" y1="656.957" x2="415.144" y2="843.457"/>
<polygon fill="none" stroke="#0E263A" stroke-width="0.25" stroke-miterlimit="10" points="953.655,896.438 862.606,861.715 
	862.606,673.781 953.655,708.504 "/>
<polygon fill="none" stroke="#0E263A" stroke-width="0.25" stroke-miterlimit="10" points="953.655,708.576 862.606,673.854 
	900.659,656.422 991.706,691.143 "/>
<polygon fill="none" stroke="#0E263A" stroke-width="0.25" stroke-miterlimit="10" points="953.655,895.928 862.606,861.205 
	900.659,843.773 991.706,878.496 "/>
<polygon fill="none" stroke="#0E263A" stroke-width="0.25" stroke-miterlimit="10" points="991.479,878.514 953.655,896.92 
	953.655,710.107 991.479,691.701 "/>
<line fill="none" stroke="#0E263A" stroke-width="0.25" stroke-miterlimit="10" x1="896.379" y1="892.545" x2="862.688" y2="861.178"/>
<line fill="none" stroke="#0E263A" stroke-width="0.25" stroke-miterlimit="10" x1="896.379" y1="892.545" x2="953.572" y2="896.455"/>
<line fill="none" stroke="#0E263A" stroke-width="0.25" stroke-miterlimit="10" x1="896.379" y1="705.434" x2="862.688" y2="674.061"/>
<line fill="none" stroke="#0E263A" stroke-width="0.25" stroke-miterlimit="10" x1="896.379" y1="705.434" x2="953.572" y2="709.346"/>
<line fill="none" stroke="#0E263A" stroke-width="0.25" stroke-miterlimit="10" x1="896.379" y1="706.041" x2="896.379" y2="892.545"/>
<line fill="none" stroke="#0E263A" stroke-width="0.25" stroke-miterlimit="10" x1="900.59" y1="656.957" x2="900.59" y2="843.457"/>
<polygon fill="none" stroke="#0E263A" stroke-width="0.25" stroke-miterlimit="10" points="411.762,454.02 502.812,488.744 
	502.812,527.6 411.762,492.879 "/>
<polygon fill="none" stroke="#0E263A" stroke-width="0.25" stroke-miterlimit="10" points="269.914,526.191 411.762,453.537 
	411.762,492.395 269.914,565.047 "/>
<polygon fill="none" stroke="#0E263A" stroke-width="0.25" stroke-miterlimit="10" points="360.962,600.252 502.812,527.6 
	411.762,492.395 269.914,565.047 "/>
<polygon fill="none" stroke="#0E263A" stroke-width="0.25" stroke-miterlimit="10" points="602.124,454.02 693.171,488.744 
	693.171,676.678 602.124,641.955 "/>
<polygon fill="none" stroke="#0E263A" stroke-width="0.25" stroke-miterlimit="10" points="602.124,641.881 693.171,676.604 
	655.12,694.035 564.069,659.316 "/>
<polygon fill="none" stroke="#0E263A" stroke-width="0.25" stroke-miterlimit="10" points="602.124,454.527 693.171,489.25 
	655.12,506.684 564.069,471.961 "/>
<polygon fill="none" stroke="#0E263A" stroke-width="0.25" stroke-miterlimit="10" points="564.3,471.945 602.124,453.537 
	602.124,640.352 564.3,658.756 "/>
<polyline fill="none" stroke="#0E263A" stroke-width="0.25" stroke-miterlimit="10" points="597.993,690.123 564.3,658.756 
	564.3,471.945 "/>
<line fill="none" stroke="#0E263A" stroke-width="0.25" stroke-miterlimit="10" x1="597.993" y1="690.123" x2="655.184" y2="694.035"/>
<line fill="none" stroke="#0E263A" stroke-width="0.25" stroke-miterlimit="10" x1="597.993" y1="503.625" x2="564.3" y2="472.252"/>
<line fill="none" stroke="#0E263A" stroke-width="0.25" stroke-miterlimit="10" x1="597.993" y1="503.625" x2="655.184" y2="507.535"/>
<polygon fill="none" stroke="#0E263A" stroke-width="0.25" stroke-miterlimit="10" points="360.962,560.984 502.812,488.336 
	457.287,443.922 315.438,516.576 "/>
<polygon fill="none" stroke="#0E263A" stroke-width="0.25" stroke-miterlimit="10" points="315.438,516.576 457.287,443.922 
	411.762,453.135 269.914,525.781 "/>
<polygon fill="none" stroke="#0E263A" stroke-width="0.25" stroke-miterlimit="10" points="270.168,565.047 361.217,599.771 
	360.962,560.912 269.914,526.191 "/>
<line fill="none" stroke="#0E263A" stroke-width="0.25" stroke-miterlimit="10" x1="597.993" y1="690.123" x2="597.993" y2="503.625"/>
<line fill="none" stroke="#0E263A" stroke-width="0.25" stroke-miterlimit="10" x1="655.184" y1="693.502" x2="655.184" y2="507"/>
<polygon fill="none" stroke="#0E263A" stroke-width="0.25" stroke-miterlimit="10" points="116.673,454.02 207.723,488.744 
	207.723,676.678 116.673,641.955 "/>
<polygon fill="none" stroke="#0E263A" stroke-width="0.25" stroke-miterlimit="10" points="116.673,641.881 207.723,676.604 
	169.669,694.035 78.621,659.316 "/>
<polygon fill="none" stroke="#0E263A" stroke-width="0.25" stroke-miterlimit="10" points="116.673,454.527 207.723,489.25 
	169.669,506.684 78.621,471.961 "/>
<polygon fill="none" stroke="#0E263A" stroke-width="0.25" stroke-miterlimit="10" points="78.85,471.945 116.673,453.537 
	116.673,640.352 78.85,658.756 "/>
<line fill="none" stroke="#0E263A" stroke-width="0.25" stroke-miterlimit="10" x1="173.947" y1="457.912" x2="207.641" y2="489.281"/>
<line fill="none" stroke="#0E263A" stroke-width="0.25" stroke-miterlimit="10" x1="173.947" y1="457.912" x2="116.755" y2="454.002"/>
<line fill="none" stroke="#0E263A" stroke-width="0.25" stroke-miterlimit="10" x1="173.947" y1="645.027" x2="207.641" y2="676.396"/>
<line fill="none" stroke="#0E263A" stroke-width="0.25" stroke-miterlimit="10" x1="173.947" y1="645.027" x2="116.755" y2="641.113"/>
<line fill="none" stroke="#0E263A" stroke-width="0.25" stroke-miterlimit="10" x1="173.947" y1="644.412" x2="173.947" y2="457.912"/>
<line fill="none" stroke="#0E263A" stroke-width="0.25" stroke-miterlimit="10" x1="169.734" y1="693.502" x2="169.734" y2="507"/>
<polygon fill="none" stroke="#0E263A" stroke-width="0.25" stroke-miterlimit="10" points="169.669,394.126 78.621,359.405 
	78.621,320.547 169.669,355.27 "/>
<polygon fill="none" stroke="#0E263A" stroke-width="0.25" stroke-miterlimit="10" points="311.519,321.96 220.47,287.238 
	220.47,248.379 311.519,283.103 "/>
<polygon fill="none" stroke="#0E263A" stroke-width="0.25" stroke-miterlimit="10" points="311.519,321.96 169.669,394.607 
	169.669,355.75 311.519,283.1 "/>
<polygon fill="none" stroke="#0E263A" stroke-width="0.25" stroke-miterlimit="10" points="220.47,287.238 78.621,359.887 
	78.621,321.03 220.47,248.379 "/>
<polygon fill="none" stroke="#0E263A" stroke-width="0.25" stroke-miterlimit="10" points="658.568,394.126 567.521,359.405 
	567.521,320.547 658.568,355.27 "/>
<polygon fill="none" stroke="#0E263A" stroke-width="0.25" stroke-miterlimit="10" points="800.418,321.96 658.568,394.607 
	658.568,355.75 800.418,283.1 "/>
<polygon fill="none" stroke="#0E263A" stroke-width="0.25" stroke-miterlimit="10" points="709.367,247.897 567.521,320.547 
	658.568,355.75 800.418,283.1 "/>
<polygon fill="none" stroke="#0E263A" stroke-width="0.25" stroke-miterlimit="10" points="265.992,238.688 124.146,311.339 
	169.669,355.75 311.519,283.1 "/>
<polygon fill="none" stroke="#0E263A" stroke-width="0.25" stroke-miterlimit="10" points="220.47,247.897 78.621,320.547 
	124.146,311.339 265.992,238.688 "/>
<polygon fill="none" stroke="#0E263A" stroke-width="0.25" stroke-miterlimit="10" points="468.206,394.126 377.156,359.405 
	377.156,171.471 468.206,206.193 "/>
<polygon fill="none" stroke="#0E263A" stroke-width="0.25" stroke-miterlimit="10" points="468.206,206.267 377.156,171.544 
	415.21,154.109 506.258,188.832 "/>
<polygon fill="none" stroke="#0E263A" stroke-width="0.25" stroke-miterlimit="10" points="468.206,393.622 377.156,358.899 
	415.21,341.464 506.258,376.188 "/>
<polygon fill="none" stroke="#0E263A" stroke-width="0.25" stroke-miterlimit="10" points="506.028,376.204 468.206,394.607 
	468.206,207.796 506.028,189.394 "/>
<polyline fill="none" stroke="#0E263A" stroke-width="0.25" stroke-miterlimit="10" points="472.337,158.023 506.028,189.394 
	506.028,376.204 "/>
<line fill="none" stroke="#0E263A" stroke-width="0.25" stroke-miterlimit="10" x1="472.337" y1="158.023" x2="415.144" y2="154.109"/>
<line fill="none" stroke="#0E263A" stroke-width="0.25" stroke-miterlimit="10" x1="472.337" y1="344.526" x2="506.028" y2="375.895"/>
<line fill="none" stroke="#0E263A" stroke-width="0.25" stroke-miterlimit="10" x1="472.337" y1="344.526" x2="415.144" y2="340.613"/>
<polygon fill="none" stroke="#0E263A" stroke-width="0.25" stroke-miterlimit="10" points="709.367,287.162 567.521,359.814 
	613.042,404.225 754.891,331.577 "/>
<polygon fill="none" stroke="#0E263A" stroke-width="0.25" stroke-miterlimit="10" points="754.891,331.577 613.042,404.225 
	658.568,395.017 800.418,322.365 "/>
<polygon fill="none" stroke="#0E263A" stroke-width="0.25" stroke-miterlimit="10" points="800.161,283.1 709.11,248.379 
	709.367,287.238 800.418,321.96 "/>
<line fill="none" stroke="#0E263A" stroke-width="0.25" stroke-miterlimit="10" x1="472.337" y1="158.023" x2="472.337" y2="344.526"/>
<line fill="none" stroke="#0E263A" stroke-width="0.25" stroke-miterlimit="10" x1="415.144" y1="154.647" x2="415.144" y2="341.15"/>
<polygon fill="none" stroke="#0E263A" stroke-width="0.25" stroke-miterlimit="10" points="953.655,394.126 862.606,359.405 
	862.606,171.471 953.655,206.193 "/>
<polygon fill="none" stroke="#0E263A" stroke-width="0.25" stroke-miterlimit="10" points="953.655,206.267 862.606,171.544 
	900.659,154.109 991.706,188.832 "/>
<polygon fill="none" stroke="#0E263A" stroke-width="0.25" stroke-miterlimit="10" points="953.655,393.622 862.606,358.899 
	900.659,341.464 991.706,376.188 "/>
<polygon fill="none" stroke="#0E263A" stroke-width="0.25" stroke-miterlimit="10" points="991.479,376.204 953.655,394.607 
	953.655,207.796 991.479,189.394 "/>
<line fill="none" stroke="#0E263A" stroke-width="0.25" stroke-miterlimit="10" x1="896.379" y1="390.235" x2="862.688" y2="358.863"/>
<line fill="none" stroke="#0E263A" stroke-width="0.25" stroke-miterlimit="10" x1="896.379" y1="390.235" x2="953.572" y2="394.149"/>
<line fill="none" stroke="#0E263A" stroke-width="0.25" stroke-miterlimit="10" x1="896.379" y1="203.122" x2="862.688" y2="171.752"/>
<line fill="none" stroke="#0E263A" stroke-width="0.25" stroke-miterlimit="10" x1="896.379" y1="203.122" x2="953.572" y2="207.038"/>
<line fill="none" stroke="#0E263A" stroke-width="0.25" stroke-miterlimit="10" x1="896.379" y1="203.732" x2="896.379" y2="390.235"/>
<line fill="none" stroke="#0E263A" stroke-width="0.25" stroke-miterlimit="10" x1="900.59" y1="154.647" x2="900.59" y2="341.15"/>
<polygon fill="none" stroke="#0E263A" stroke-width="0.25" stroke-miterlimit="10" points="900.659,-48.287 991.706,-13.568 
	991.706,25.292 900.659,-9.431 "/>
<polygon fill="none" stroke="#0E263A" stroke-width="0.25" stroke-miterlimit="10" points="758.809,23.879 849.86,58.602 
	849.86,97.458 758.809,62.739 "/>
<polygon fill="none" stroke="#0E263A" stroke-width="0.25" stroke-miterlimit="10" points="758.809,23.879 900.659,-48.771 
	900.659,-9.911 758.809,62.739 "/>
<polygon fill="none" stroke="#0E263A" stroke-width="0.25" stroke-miterlimit="10" points="849.86,58.602 991.706,-14.048 
	991.706,24.811 849.86,97.458 "/>
<polygon fill="none" stroke="#0E263A" stroke-width="0.25" stroke-miterlimit="10" points="411.762,-48.287 502.812,-13.568 
	502.812,25.292 411.762,-9.431 "/>
<polygon fill="none" stroke="#0E263A" stroke-width="0.25" stroke-miterlimit="10" points="269.914,23.879 411.762,-48.771 
	411.762,-9.911 269.914,62.739 "/>
<polygon fill="none" stroke="#0E263A" stroke-width="0.25" stroke-miterlimit="10" points="360.962,97.942 502.812,25.292 
	411.762,-9.911 269.914,62.739 "/>
<polygon fill="none" stroke="#0E263A" stroke-width="0.25" stroke-miterlimit="10" points="804.334,107.149 946.18,34.5 
	900.659,-9.911 758.809,62.739 "/>
<polygon fill="none" stroke="#0E263A" stroke-width="0.25" stroke-miterlimit="10" points="849.86,97.942 991.706,25.292 
	946.18,34.5 804.334,107.149 "/>
<polygon fill="none" stroke="#0E263A" stroke-width="0.25" stroke-miterlimit="10" points="602.124,-48.287 693.171,-13.568 
	693.171,174.369 602.124,139.644 "/>
<polygon fill="none" stroke="#0E263A" stroke-width="0.25" stroke-miterlimit="10" points="602.124,139.576 693.171,174.294 
	655.12,191.728 564.069,157.005 "/>
<polygon fill="none" stroke="#0E263A" stroke-width="0.25" stroke-miterlimit="10" points="602.124,-47.78 693.171,-13.057 
	655.12,4.375 564.069,-30.348 "/>
<polygon fill="none" stroke="#0E263A" stroke-width="0.25" stroke-miterlimit="10" points="564.3,-30.367 602.124,-48.771 
	602.124,138.041 564.3,156.443 "/>
<polyline fill="none" stroke="#0E263A" stroke-width="0.25" stroke-miterlimit="10" points="597.993,187.815 564.3,156.443 
	564.3,-30.367 "/>
<line fill="none" stroke="#0E263A" stroke-width="0.25" stroke-miterlimit="10" x1="597.993" y1="187.815" x2="655.184" y2="191.728"/>
<line fill="none" stroke="#0E263A" stroke-width="0.25" stroke-miterlimit="10" x1="597.993" y1="1.312" x2="564.3" y2="-30.059"/>
<line fill="none" stroke="#0E263A" stroke-width="0.25" stroke-miterlimit="10" x1="597.993" y1="1.312" x2="655.184" y2="5.224"/>
<polygon fill="none" stroke="#0E263A" stroke-width="0.25" stroke-miterlimit="10" points="360.962,58.678 502.812,-13.972 
	457.287,-58.386 315.438,14.263 "/>
<polygon fill="none" stroke="#0E263A" stroke-width="0.25" stroke-miterlimit="10" points="315.438,14.263 457.287,-58.386 
	411.762,-49.175 269.914,23.475 "/>
<polygon fill="none" stroke="#0E263A" stroke-width="0.25" stroke-miterlimit="10" points="270.168,62.739 361.217,97.458 
	360.962,58.602 269.914,23.879 "/>
<line fill="none" stroke="#0E263A" stroke-width="0.25" stroke-miterlimit="10" x1="597.993" y1="187.815" x2="597.993" y2="1.312"/>
<line fill="none" stroke="#0E263A" stroke-width="0.25" stroke-miterlimit="10" x1="655.184" y1="191.193" x2="655.184" y2="4.691"/>
<polygon fill="none" stroke="#0E263A" stroke-width="0.25" stroke-miterlimit="10" points="116.673,-48.287 207.723,-13.568 
	207.723,174.369 116.673,139.644 "/>
<polygon fill="none" stroke="#0E263A" stroke-width="0.25" stroke-miterlimit="10" points="116.673,139.576 207.723,174.294 
	169.669,191.728 78.621,157.005 "/>
<polygon fill="none" stroke="#0E263A" stroke-width="0.25" stroke-miterlimit="10" points="116.673,-47.78 207.723,-13.057 
	169.669,4.375 78.621,-30.348 "/>
<polygon fill="none" stroke="#0E263A" stroke-width="0.25" stroke-miterlimit="10" points="78.85,-30.367 116.673,-48.771 
	116.673,138.041 78.85,156.443 "/>
<line fill="none" stroke="#0E263A" stroke-width="0.25" stroke-miterlimit="10" x1="173.947" y1="-44.398" x2="207.641" y2="-13.028"/>
<line fill="none" stroke="#0E263A" stroke-width="0.25" stroke-miterlimit="10" x1="173.947" y1="-44.398" x2="116.755" y2="-48.308"/>
<line fill="none" stroke="#0E263A" stroke-width="0.25" stroke-miterlimit="10" x1="173.947" y1="142.717" x2="207.641" y2="174.086"/>
<line fill="none" stroke="#0E263A" stroke-width="0.25" stroke-miterlimit="10" x1="173.947" y1="142.717" x2="116.755" y2="138.803"/>
<line fill="none" stroke="#0E263A" stroke-width="0.25" stroke-miterlimit="10" x1="173.947" y1="142.108" x2="173.947" y2="-44.398"/>
<line fill="none" stroke="#0E263A" stroke-width="0.25" stroke-miterlimit="10" x1="169.734" y1="191.193" x2="169.734" y2="4.691"/>
<polygon fill="none" stroke="#0E263A" stroke-width="0.25" stroke-miterlimit="10" points="849.934,593.848 758.886,559.127 
	758.886,520.268 849.934,554.99 "/>
<polygon fill="none" stroke="#0E263A" stroke-width="0.25" stroke-miterlimit="10" points="991.782,521.682 849.934,594.328 
	849.934,555.473 991.782,482.82 "/>
<polygon fill="none" stroke="#0E263A" stroke-width="0.25" stroke-miterlimit="10" points="900.732,447.619 758.886,520.268 
	849.934,555.473 991.782,482.82 "/>
<polygon fill="none" stroke="#0E263A" stroke-width="0.25" stroke-miterlimit="10" points="900.732,486.883 758.886,559.533 
	804.409,603.945 946.257,531.299 "/>
<polygon fill="none" stroke="#0E263A" stroke-width="0.25" stroke-miterlimit="10" points="946.257,531.299 804.409,603.945 
	849.934,594.736 991.782,522.084 "/>
<polygon fill="none" stroke="#0E263A" stroke-width="0.25" stroke-miterlimit="10" points="991.525,482.82 900.479,448.102 
	900.732,486.959 991.782,521.682 "/>
<polygon fill="none" stroke="#0E263A" stroke-width="0.25" stroke-miterlimit="10" points="1126.366,893.731 1035.318,859.009 
	1035.318,820.151 1126.366,854.874 "/>
<polygon fill="none" stroke="#0E263A" stroke-width="0.25" stroke-miterlimit="10" points="1268.216,821.56 1177.168,786.837 
	1177.168,747.979 1268.216,782.702 "/>
<polygon fill="none" stroke="#0E263A" stroke-width="0.25" stroke-miterlimit="10" points="1268.216,821.56 1126.366,894.214 
	1126.366,855.353 1268.216,782.702 "/>
<polygon fill="none" stroke="#0E263A" stroke-width="0.25" stroke-miterlimit="10" points="1177.168,786.837 1035.318,859.489 
	1035.318,820.634 1177.168,747.979 "/>
<polygon fill="none" stroke="#0E263A" stroke-width="0.25" stroke-miterlimit="10" points="1615.266,893.731 1524.218,859.009 
	1524.218,820.151 1615.266,854.874 "/>
<polygon fill="none" stroke="#0E263A" stroke-width="0.25" stroke-miterlimit="10" points="1757.115,821.56 1615.266,894.214 
	1615.266,855.353 1757.115,782.702 "/>
<polygon fill="none" stroke="#0E263A" stroke-width="0.25" stroke-miterlimit="10" points="1666.064,747.499 1524.218,820.151 
	1615.266,855.353 1757.115,782.702 "/>
<polygon fill="none" stroke="#0E263A" stroke-width="0.25" stroke-miterlimit="10" points="1222.689,738.29 1080.844,810.94 
	1126.366,855.353 1268.216,782.702 "/>
<polygon fill="none" stroke="#0E263A" stroke-width="0.25" stroke-miterlimit="10" points="1177.168,747.499 1035.318,820.151 
	1080.844,810.94 1222.689,738.29 "/>
<polygon fill="none" stroke="#0E263A" stroke-width="0.25" stroke-miterlimit="10" points="1424.903,893.731 1333.854,859.009 
	1333.854,671.075 1424.903,705.798 "/>
<polygon fill="none" stroke="#0E263A" stroke-width="0.25" stroke-miterlimit="10" points="1424.903,705.87 1333.854,671.147 
	1371.907,653.716 1462.955,688.437 "/>
<polygon fill="none" stroke="#0E263A" stroke-width="0.25" stroke-miterlimit="10" points="1424.903,893.222 1333.854,858.499 
	1371.907,841.067 1462.955,875.79 "/>
<polygon fill="none" stroke="#0E263A" stroke-width="0.25" stroke-miterlimit="10" points="1462.726,875.808 1424.903,894.214 
	1424.903,707.401 1462.726,688.995 "/>
<polyline fill="none" stroke="#0E263A" stroke-width="0.25" stroke-miterlimit="10" points="1429.034,657.626 1462.726,688.995 
	1462.726,875.808 "/>
<line fill="none" stroke="#0E263A" stroke-width="0.25" stroke-miterlimit="10" x1="1429.034" y1="657.626" x2="1371.841" y2="653.716"/>
<line fill="none" stroke="#0E263A" stroke-width="0.25" stroke-miterlimit="10" x1="1429.034" y1="844.126" x2="1462.726" y2="875.499"/>
<line fill="none" stroke="#0E263A" stroke-width="0.25" stroke-miterlimit="10" x1="1429.034" y1="844.126" x2="1371.841" y2="840.218"/>
<polygon fill="none" stroke="#0E263A" stroke-width="0.25" stroke-miterlimit="10" points="1666.064,786.767 1524.218,859.413 
	1569.739,903.829 1711.588,831.177 "/>
<polygon fill="none" stroke="#0E263A" stroke-width="0.25" stroke-miterlimit="10" points="1711.588,831.177 1569.739,903.829 
	1615.266,894.616 1757.115,821.968 "/>
<polygon fill="none" stroke="#0E263A" stroke-width="0.25" stroke-miterlimit="10" points="1756.858,782.702 1665.808,747.979 
	1666.064,786.837 1757.115,821.56 "/>
<line fill="none" stroke="#0E263A" stroke-width="0.25" stroke-miterlimit="10" x1="1429.034" y1="657.626" x2="1429.034" y2="844.126"/>
<line fill="none" stroke="#0E263A" stroke-width="0.25" stroke-miterlimit="10" x1="1371.841" y1="654.251" x2="1371.841" y2="840.751"/>
<polygon fill="none" stroke="#0E263A" stroke-width="0.25" stroke-miterlimit="10" points="1910.353,893.731 1819.304,859.009 
	1819.304,671.075 1910.353,705.798 "/>
<polygon fill="none" stroke="#0E263A" stroke-width="0.25" stroke-miterlimit="10" points="1910.353,705.87 1819.304,671.147 
	1857.356,653.716 1948.403,688.437 "/>
<polygon fill="none" stroke="#0E263A" stroke-width="0.25" stroke-miterlimit="10" points="1910.353,893.222 1819.304,858.499 
	1857.356,841.067 1948.403,875.79 "/>
<polygon fill="none" stroke="#0E263A" stroke-width="0.25" stroke-miterlimit="10" points="1948.176,875.808 1910.353,894.214 
	1910.353,707.401 1948.176,688.995 "/>
<line fill="none" stroke="#0E263A" stroke-width="0.25" stroke-miterlimit="10" x1="1853.076" y1="889.839" x2="1819.386" y2="858.472"/>
<line fill="none" stroke="#0E263A" stroke-width="0.25" stroke-miterlimit="10" x1="1853.076" y1="889.839" x2="1910.27" y2="893.749"/>
<line fill="none" stroke="#0E263A" stroke-width="0.25" stroke-miterlimit="10" x1="1853.076" y1="702.728" x2="1819.386" y2="671.354"/>
<line fill="none" stroke="#0E263A" stroke-width="0.25" stroke-miterlimit="10" x1="1853.076" y1="702.728" x2="1910.27" y2="706.64"/>
<line fill="none" stroke="#0E263A" stroke-width="0.25" stroke-miterlimit="10" x1="1853.076" y1="703.335" x2="1853.076" y2="889.839"/>
<line fill="none" stroke="#0E263A" stroke-width="0.25" stroke-miterlimit="10" x1="1857.287" y1="654.251" x2="1857.287" y2="840.751"/>
<polygon fill="none" stroke="#0E263A" stroke-width="0.25" stroke-miterlimit="10" points="1368.459,451.313 1459.509,486.038 
	1459.509,524.894 1368.459,490.173 "/>
<polygon fill="none" stroke="#0E263A" stroke-width="0.25" stroke-miterlimit="10" points="1226.611,523.485 1368.459,450.831 
	1368.459,489.688 1226.611,562.341 "/>
<polygon fill="none" stroke="#0E263A" stroke-width="0.25" stroke-miterlimit="10" points="1317.66,597.546 1459.509,524.894 
	1368.459,489.688 1226.611,562.341 "/>
<polygon fill="none" stroke="#0E263A" stroke-width="0.25" stroke-miterlimit="10" points="1558.821,451.313 1649.868,486.038 
	1649.868,673.972 1558.821,639.249 "/>
<polygon fill="none" stroke="#0E263A" stroke-width="0.25" stroke-miterlimit="10" points="1558.821,639.175 1649.868,673.897 
	1611.817,691.329 1520.767,656.61 "/>
<polygon fill="none" stroke="#0E263A" stroke-width="0.25" stroke-miterlimit="10" points="1558.821,451.821 1649.868,486.544 
	1611.817,503.978 1520.767,469.255 "/>
<polygon fill="none" stroke="#0E263A" stroke-width="0.25" stroke-miterlimit="10" points="1520.997,469.239 1558.821,450.831 
	1558.821,637.646 1520.997,656.05 "/>
<polyline fill="none" stroke="#0E263A" stroke-width="0.25" stroke-miterlimit="10" points="1554.69,687.417 1520.997,656.05 
	1520.997,469.239 "/>
<line fill="none" stroke="#0E263A" stroke-width="0.25" stroke-miterlimit="10" x1="1554.69" y1="687.417" x2="1611.881" y2="691.329"/>
<line fill="none" stroke="#0E263A" stroke-width="0.25" stroke-miterlimit="10" x1="1554.69" y1="500.919" x2="1520.997" y2="469.546"/>
<line fill="none" stroke="#0E263A" stroke-width="0.25" stroke-miterlimit="10" x1="1554.69" y1="500.919" x2="1611.881" y2="504.829"/>
<polygon fill="none" stroke="#0E263A" stroke-width="0.25" stroke-miterlimit="10" points="1317.66,558.278 1459.509,485.63 
	1413.984,441.216 1272.136,513.87 "/>
<polygon fill="none" stroke="#0E263A" stroke-width="0.25" stroke-miterlimit="10" points="1272.136,513.87 1413.984,441.216 
	1368.459,450.429 1226.611,523.075 "/>
<polygon fill="none" stroke="#0E263A" stroke-width="0.25" stroke-miterlimit="10" points="1226.865,562.341 1317.914,597.065 
	1317.66,558.206 1226.611,523.485 "/>
<line fill="none" stroke="#0E263A" stroke-width="0.25" stroke-miterlimit="10" x1="1554.69" y1="687.417" x2="1554.69" y2="500.919"/>
<line fill="none" stroke="#0E263A" stroke-width="0.25" stroke-miterlimit="10" x1="1611.881" y1="690.796" x2="1611.881" y2="504.294"/>
<polygon fill="none" stroke="#0E263A" stroke-width="0.25" stroke-miterlimit="10" points="1073.371,451.313 1164.42,486.038 
	1164.42,673.972 1073.371,639.249 "/>
<polygon fill="none" stroke="#0E263A" stroke-width="0.25" stroke-miterlimit="10" points="1073.371,639.175 1164.42,673.897 
	1126.366,691.329 1035.318,656.61 "/>
<polygon fill="none" stroke="#0E263A" stroke-width="0.25" stroke-miterlimit="10" points="1073.371,451.821 1164.42,486.544 
	1126.366,503.978 1035.318,469.255 "/>
<polygon fill="none" stroke="#0E263A" stroke-width="0.25" stroke-miterlimit="10" points="1035.547,469.239 1073.371,450.831 
	1073.371,637.646 1035.547,656.05 "/>
<line fill="none" stroke="#0E263A" stroke-width="0.25" stroke-miterlimit="10" x1="1130.645" y1="455.206" x2="1164.338" y2="486.575"/>
<line fill="none" stroke="#0E263A" stroke-width="0.25" stroke-miterlimit="10" x1="1130.645" y1="455.206" x2="1073.452" y2="451.296"/>
<line fill="none" stroke="#0E263A" stroke-width="0.25" stroke-miterlimit="10" x1="1130.645" y1="642.321" x2="1164.338" y2="673.69"/>
<line fill="none" stroke="#0E263A" stroke-width="0.25" stroke-miterlimit="10" x1="1130.645" y1="642.321" x2="1073.452" y2="638.407"/>
<line fill="none" stroke="#0E263A" stroke-width="0.25" stroke-miterlimit="10" x1="1130.645" y1="641.706" x2="1130.645" y2="455.206"/>
<line fill="none" stroke="#0E263A" stroke-width="0.25" stroke-miterlimit="10" x1="1126.432" y1="690.796" x2="1126.432" y2="504.294"/>
<polygon fill="none" stroke="#0E263A" stroke-width="0.25" stroke-miterlimit="10" points="1126.366,391.421 1035.318,356.699 
	1035.318,317.842 1126.366,352.564 "/>
<polygon fill="none" stroke="#0E263A" stroke-width="0.25" stroke-miterlimit="10" points="1268.216,319.255 1177.168,284.532 
	1177.168,245.674 1268.216,280.397 "/>
<polygon fill="none" stroke="#0E263A" stroke-width="0.25" stroke-miterlimit="10" points="1268.216,319.255 1126.366,391.901 
	1126.366,353.045 1268.216,280.395 "/>
<polygon fill="none" stroke="#0E263A" stroke-width="0.25" stroke-miterlimit="10" points="1177.168,284.532 1035.318,357.182 
	1035.318,318.324 1177.168,245.674 "/>
<polygon fill="none" stroke="#0E263A" stroke-width="0.25" stroke-miterlimit="10" points="1615.266,391.421 1524.218,356.699 
	1524.218,317.842 1615.266,352.564 "/>
<polygon fill="none" stroke="#0E263A" stroke-width="0.25" stroke-miterlimit="10" points="1757.115,319.255 1615.266,391.901 
	1615.266,353.045 1757.115,280.395 "/>
<polygon fill="none" stroke="#0E263A" stroke-width="0.25" stroke-miterlimit="10" points="1666.064,245.191 1524.218,317.842 
	1615.266,353.045 1757.115,280.395 "/>
<polygon fill="none" stroke="#0E263A" stroke-width="0.25" stroke-miterlimit="10" points="1222.689,235.982 1080.844,308.634 
	1126.366,353.045 1268.216,280.395 "/>
<polygon fill="none" stroke="#0E263A" stroke-width="0.25" stroke-miterlimit="10" points="1177.168,245.191 1035.318,317.842 
	1080.844,308.634 1222.689,235.982 "/>
<polygon fill="none" stroke="#0E263A" stroke-width="0.25" stroke-miterlimit="10" points="1424.903,391.421 1333.854,356.699 
	1333.854,168.766 1424.903,203.487 "/>
<polygon fill="none" stroke="#0E263A" stroke-width="0.25" stroke-miterlimit="10" points="1424.903,203.562 1333.854,168.839 
	1371.907,151.403 1462.955,186.126 "/>
<polygon fill="none" stroke="#0E263A" stroke-width="0.25" stroke-miterlimit="10" points="1424.903,390.916 1333.854,356.193 
	1371.907,338.759 1462.955,373.482 "/>
<polygon fill="none" stroke="#0E263A" stroke-width="0.25" stroke-miterlimit="10" points="1462.726,373.498 1424.903,391.901 
	1424.903,205.091 1462.726,186.688 "/>
<polyline fill="none" stroke="#0E263A" stroke-width="0.25" stroke-miterlimit="10" points="1429.034,155.317 1462.726,186.688 
	1462.726,373.498 "/>
<line fill="none" stroke="#0E263A" stroke-width="0.25" stroke-miterlimit="10" x1="1429.034" y1="155.317" x2="1371.841" y2="151.403"/>
<line fill="none" stroke="#0E263A" stroke-width="0.25" stroke-miterlimit="10" x1="1429.034" y1="341.82" x2="1462.726" y2="373.189"/>
<line fill="none" stroke="#0E263A" stroke-width="0.25" stroke-miterlimit="10" x1="1429.034" y1="341.82" x2="1371.841" y2="337.907"/>
<polygon fill="none" stroke="#0E263A" stroke-width="0.25" stroke-miterlimit="10" points="1666.064,284.456 1524.218,357.108 
	1569.739,401.52 1711.588,328.871 "/>
<polygon fill="none" stroke="#0E263A" stroke-width="0.25" stroke-miterlimit="10" points="1711.588,328.871 1569.739,401.52 
	1615.266,392.312 1757.115,319.659 "/>
<polygon fill="none" stroke="#0E263A" stroke-width="0.25" stroke-miterlimit="10" points="1756.858,280.395 1665.808,245.674 
	1666.064,284.532 1757.115,319.255 "/>
<line fill="none" stroke="#0E263A" stroke-width="0.25" stroke-miterlimit="10" x1="1429.034" y1="155.317" x2="1429.034" y2="341.82"/>
<line fill="none" stroke="#0E263A" stroke-width="0.25" stroke-miterlimit="10" x1="1371.841" y1="151.941" x2="1371.841" y2="338.444"/>
<polygon fill="none" stroke="#0E263A" stroke-width="0.25" stroke-miterlimit="10" points="1910.353,391.421 1819.304,356.699 
	1819.304,168.766 1910.353,203.487 "/>
<polygon fill="none" stroke="#0E263A" stroke-width="0.25" stroke-miterlimit="10" points="1910.353,203.562 1819.304,168.839 
	1857.356,151.403 1948.403,186.126 "/>
<polygon fill="none" stroke="#0E263A" stroke-width="0.25" stroke-miterlimit="10" points="1910.353,390.916 1819.304,356.193 
	1857.356,338.759 1948.403,373.482 "/>
<polygon fill="none" stroke="#0E263A" stroke-width="0.25" stroke-miterlimit="10" points="1948.176,373.498 1910.353,391.901 
	1910.353,205.091 1948.176,186.688 "/>
<line fill="none" stroke="#0E263A" stroke-width="0.25" stroke-miterlimit="10" x1="1853.076" y1="387.529" x2="1819.386" y2="356.157"/>
<line fill="none" stroke="#0E263A" stroke-width="0.25" stroke-miterlimit="10" x1="1853.076" y1="387.529" x2="1910.27" y2="391.443"/>
<line fill="none" stroke="#0E263A" stroke-width="0.25" stroke-miterlimit="10" x1="1853.076" y1="200.416" x2="1819.386" y2="169.047"/>
<line fill="none" stroke="#0E263A" stroke-width="0.25" stroke-miterlimit="10" x1="1853.076" y1="200.416" x2="1910.27" y2="204.332"/>
<line fill="none" stroke="#0E263A" stroke-width="0.25" stroke-miterlimit="10" x1="1853.076" y1="201.026" x2="1853.076" y2="387.529"/>
<line fill="none" stroke="#0E263A" stroke-width="0.25" stroke-miterlimit="10" x1="1857.287" y1="151.941" x2="1857.287" y2="338.444"/>
<polygon fill="none" stroke="#0E263A" stroke-width="0.25" stroke-miterlimit="10" points="1857.356,-50.993 1948.403,-16.273 
	1948.403,22.586 1857.356,-12.136 "/>
<polygon fill="none" stroke="#0E263A" stroke-width="0.25" stroke-miterlimit="10" points="1715.506,21.174 1806.558,55.896 
	1806.558,94.752 1715.506,60.034 "/>
<polygon fill="none" stroke="#0E263A" stroke-width="0.25" stroke-miterlimit="10" points="1715.506,21.174 1857.356,-51.476 
	1857.356,-12.616 1715.506,60.034 "/>
<polygon fill="none" stroke="#0E263A" stroke-width="0.25" stroke-miterlimit="10" points="1806.558,55.896 1948.403,-16.753 
	1948.403,22.105 1806.558,94.752 "/>
<polygon fill="none" stroke="#0E263A" stroke-width="0.25" stroke-miterlimit="10" points="1368.459,-50.993 1459.509,-16.273 
	1459.509,22.586 1368.459,-12.136 "/>
<polygon fill="none" stroke="#0E263A" stroke-width="0.25" stroke-miterlimit="10" points="1226.611,21.174 1368.459,-51.476 
	1368.459,-12.616 1226.611,60.034 "/>
<polygon fill="none" stroke="#0E263A" stroke-width="0.25" stroke-miterlimit="10" points="1317.66,95.236 1459.509,22.586 
	1368.459,-12.616 1226.611,60.034 "/>
<polygon fill="none" stroke="#0E263A" stroke-width="0.25" stroke-miterlimit="10" points="1761.031,104.444 1902.877,31.794 
	1857.356,-12.616 1715.506,60.034 "/>
<polygon fill="none" stroke="#0E263A" stroke-width="0.25" stroke-miterlimit="10" points="1806.558,95.236 1948.403,22.586 
	1902.877,31.794 1761.031,104.444 "/>
<polygon fill="none" stroke="#0E263A" stroke-width="0.25" stroke-miterlimit="10" points="1558.821,-50.993 1649.868,-16.273 
	1649.868,171.663 1558.821,136.938 "/>
<polygon fill="none" stroke="#0E263A" stroke-width="0.25" stroke-miterlimit="10" points="1558.821,136.87 1649.868,171.589 
	1611.817,189.022 1520.767,154.3 "/>
<polygon fill="none" stroke="#0E263A" stroke-width="0.25" stroke-miterlimit="10" points="1558.821,-50.485 1649.868,-15.763 
	1611.817,1.669 1520.767,-33.054 "/>
<polygon fill="none" stroke="#0E263A" stroke-width="0.25" stroke-miterlimit="10" points="1520.997,-33.072 1558.821,-51.476 
	1558.821,135.335 1520.997,153.737 "/>
<polyline fill="none" stroke="#0E263A" stroke-width="0.25" stroke-miterlimit="10" points="1554.69,185.109 1520.997,153.737 
	1520.997,-33.072 "/>
<line fill="none" stroke="#0E263A" stroke-width="0.25" stroke-miterlimit="10" x1="1554.69" y1="185.109" x2="1611.881" y2="189.022"/>
<line fill="none" stroke="#0E263A" stroke-width="0.25" stroke-miterlimit="10" x1="1554.69" y1="-1.393" x2="1520.997" y2="-32.764"/>
<line fill="none" stroke="#0E263A" stroke-width="0.25" stroke-miterlimit="10" x1="1554.69" y1="-1.393" x2="1611.881" y2="2.519"/>
<polygon fill="none" stroke="#0E263A" stroke-width="0.25" stroke-miterlimit="10" points="1317.66,55.972 1459.509,-16.678 
	1413.984,-61.092 1272.136,11.558 "/>
<polygon fill="none" stroke="#0E263A" stroke-width="0.25" stroke-miterlimit="10" points="1272.136,11.558 1413.984,-61.092 
	1368.459,-51.881 1226.611,20.769 "/>
<polygon fill="none" stroke="#0E263A" stroke-width="0.25" stroke-miterlimit="10" points="1226.865,60.034 1317.914,94.752 
	1317.66,55.896 1226.611,21.174 "/>
<line fill="none" stroke="#0E263A" stroke-width="0.25" stroke-miterlimit="10" x1="1554.69" y1="185.109" x2="1554.69" y2="-1.393"/>
<line fill="none" stroke="#0E263A" stroke-width="0.25" stroke-miterlimit="10" x1="1611.881" y1="188.487" x2="1611.881" y2="1.985"/>
<polygon fill="none" stroke="#0E263A" stroke-width="0.25" stroke-miterlimit="10" points="1073.371,-50.993 1164.42,-16.273 
	1164.42,171.663 1073.371,136.938 "/>
<polygon fill="none" stroke="#0E263A" stroke-width="0.25" stroke-miterlimit="10" points="1073.371,136.87 1164.42,171.589 
	1126.366,189.022 1035.318,154.3 "/>
<polygon fill="none" stroke="#0E263A" stroke-width="0.25" stroke-miterlimit="10" points="1073.371,-50.485 1164.42,-15.763 
	1126.366,1.669 1035.318,-33.054 "/>
<polygon fill="none" stroke="#0E263A" stroke-width="0.25" stroke-miterlimit="10" points="1035.547,-33.072 1073.371,-51.476 
	1073.371,135.335 1035.547,153.737 "/>
<line fill="none" stroke="#0E263A" stroke-width="0.25" stroke-miterlimit="10" x1="1130.645" y1="-47.104" x2="1164.338" y2="-15.734"/>
<line fill="none" stroke="#0E263A" stroke-width="0.25" stroke-miterlimit="10" x1="1130.645" y1="-47.104" x2="1073.452" y2="-51.013"/>
<line fill="none" stroke="#0E263A" stroke-width="0.25" stroke-miterlimit="10" x1="1130.645" y1="140.012" x2="1164.338" y2="171.381"/>
<line fill="none" stroke="#0E263A" stroke-width="0.25" stroke-miterlimit="10" x1="1130.645" y1="140.012" x2="1073.452" y2="136.098"/>
<line fill="none" stroke="#0E263A" stroke-width="0.25" stroke-miterlimit="10" x1="1130.645" y1="139.402" x2="1130.645" y2="-47.104"/>
<line fill="none" stroke="#0E263A" stroke-width="0.25" stroke-miterlimit="10" x1="1126.432" y1="188.487" x2="1126.432" y2="1.985"/>
<polygon fill="none" stroke="#0E263A" stroke-width="0.25" stroke-miterlimit="10" points="1806.631,591.142 1715.583,556.421 
	1715.583,517.562 1806.631,552.284 "/>
<polygon fill="none" stroke="#0E263A" stroke-width="0.25" stroke-miterlimit="10" points="1948.479,518.976 1806.631,591.622 
	1806.631,552.767 1948.479,480.114 "/>
<polygon fill="none" stroke="#0E263A" stroke-width="0.25" stroke-miterlimit="10" points="1857.43,444.913 1715.583,517.562 
	1806.631,552.767 1948.479,480.114 "/>
<polygon fill="none" stroke="#0E263A" stroke-width="0.25" stroke-miterlimit="10" points="1857.43,484.177 1715.583,556.827 
	1761.106,601.239 1902.954,528.593 "/>
<polygon fill="none" stroke="#0E263A" stroke-width="0.25" stroke-miterlimit="10" points="1902.954,528.593 1761.106,601.239 
	1806.631,592.03 1948.479,519.378 "/>
<polygon fill="none" stroke="#0E263A" stroke-width="0.25" stroke-miterlimit="10" points="1948.223,480.114 1857.176,445.396 
	1857.43,484.253 1948.479,518.976 "/>
</svg>
