<?xml version="1.0" encoding="utf-8"?>
<!-- Generator: Adobe Illustrator 16.0.0, SVG Export Plug-In . SVG Version: 6.00 Build 0)  -->
<!DOCTYPE svg PUBLIC "-//W3C//DTD SVG 1.1//EN" "http://www.w3.org/Graphics/SVG/1.1/DTD/svg11.dtd">
<svg version="1.1" id="Layer_1" xmlns="http://www.w3.org/2000/svg" xmlns:xlink="http://www.w3.org/1999/xlink" x="0px" y="0px"
	 width="1280px" height="800px" viewBox="0 0 1280 800" enable-background="new 0 0 1280 800" xml:space="preserve">
<g>
	<path fill="none" stroke="#F4F4F4" stroke-width="0.5" stroke-miterlimit="10" d="M545.811,216.73"/>
	<path fill="none" stroke="#F4F4F4" stroke-width="0.5" stroke-miterlimit="10" d="M635.549,171.014"/>
	<g>
		<path fill="none" stroke="#F4F4F4" stroke-width="0.5" stroke-miterlimit="10" d="M545.811,192.773"/>
		<path fill="none" stroke="#F4F4F4" stroke-width="0.5" stroke-miterlimit="10" d="M609.336,162.834"/>
		<path fill="none" stroke="#F4F4F4" stroke-width="0.5" stroke-miterlimit="10" d="M545.811,216.73l-86.486-34.373l87.451-44.788
			c9.498-4.981,13.092-16.718,8.111-26.215c-4.981-9.497-16.718-13.157-26.216-8.176c-9.495,4.979-13.158,16.715-8.178,26.213
			l86.483,34.37c-4.98-9.498-1.316-21.233,8.178-26.212c9.498-4.981,21.233-1.32,26.216,8.176c4.98,9.498,1.387,21.234-8.112,26.215
			L545.811,216.73"/>
		
			<line fill="none" stroke="#F4F4F4" stroke-width="0.5" stroke-miterlimit="10" x1="544.391" y1="102.074" x2="630.874" y2="136.443"/>
	</g>
	<g>
		<path fill="none" stroke="#F4F4F4" stroke-width="0.5" stroke-miterlimit="10" d="M900.296-18.008"/>
		<path fill="none" stroke="#F4F4F4" stroke-width="0.5" stroke-miterlimit="10" d="M963.821-47.947"/>
		<path fill="none" stroke="#F4F4F4" stroke-width="0.5" stroke-miterlimit="10" d="M900.296,5.949L813.81-28.423l87.452-44.788
			c9.498-4.981,13.092-16.718,8.111-26.215c-4.981-9.496-16.718-13.157-26.216-8.176c-9.493,4.979-13.157,16.715-8.178,26.213
			l86.482,34.369c-4.98-9.497-1.317-21.233,8.179-26.212c9.498-4.981,21.232-1.32,26.215,8.176
			c4.981,9.498,1.387,21.234-8.111,26.215L900.296,5.949"/>
		
			<line fill="none" stroke="#F4F4F4" stroke-width="0.5" stroke-miterlimit="10" x1="898.876" y1="-108.708" x2="985.359" y2="-74.338"/>
	</g>
	<path fill="none" stroke="#F4F4F4" stroke-width="0.5" stroke-miterlimit="10" d="M755.85,241.127"/>
	<path fill="none" stroke="#F4F4F4" stroke-width="0.5" stroke-miterlimit="10" d="M755.851,265.084"/>
	
		<line fill="none" stroke="#F4F4F4" stroke-width="0.5" stroke-miterlimit="10" x1="797.57" y1="243.716" x2="755.85" y2="265.084"/>
	<polyline fill="none" stroke="#F4F4F4" stroke-width="0.5" stroke-miterlimit="10" points="755.851,265.084 669.364,230.712 
		711.348,209.21 	"/>
	<circle fill="none" stroke="#F4F4F4" stroke-width="0.5" stroke-miterlimit="10" cx="788.552" cy="226.556" r="19.36"/>
	
		<line fill="none" stroke="#F4F4F4" stroke-width="0.5" stroke-miterlimit="10" x1="709.549" y1="174.326" x2="796.032" y2="208.696"/>
	
		<line fill="none" stroke="#F4F4F4" stroke-width="0.5" stroke-miterlimit="10" x1="694.753" y1="210.265" x2="781.236" y2="244.635"/>
	<circle fill="none" stroke="#F4F4F4" stroke-width="0.5" stroke-miterlimit="10" cx="701.982" cy="192.268" r="19.361"/>
	<path fill="none" stroke="#F4F4F4" stroke-width="0.5" stroke-miterlimit="10" d="M569.957,53.073"/>
	<path fill="none" stroke="#F4F4F4" stroke-width="0.5" stroke-miterlimit="10" d="M587.254,77.029"/>
	
		<line fill="none" stroke="#F4F4F4" stroke-width="0.5" stroke-miterlimit="10" x1="611.679" y1="55.661" x2="569.957" y2="77.029"/>
	<polyline fill="none" stroke="#F4F4F4" stroke-width="0.5" stroke-miterlimit="10" points="569.959,77.029 483.473,42.657 
		525.457,21.156 	"/>
	<circle fill="none" stroke="#F4F4F4" stroke-width="0.5" stroke-miterlimit="10" cx="602.661" cy="38.5" r="19.361"/>
	
		<line fill="none" stroke="#F4F4F4" stroke-width="0.5" stroke-miterlimit="10" x1="523.658" y1="-13.729" x2="610.141" y2="20.641"/>
	<line fill="none" stroke="#F4F4F4" stroke-width="0.5" stroke-miterlimit="10" x1="508.862" y1="22.21" x2="595.345" y2="56.58"/>
	<circle fill="none" stroke="#F4F4F4" stroke-width="0.5" stroke-miterlimit="10" cx="516.09" cy="4.213" r="19.36"/>
	<g>
		<path fill="none" stroke="#F4F4F4" stroke-width="0.5" stroke-miterlimit="10" d="M697.96,97.201
			c8.164,5.36,7.912,13.866-0.56,18.996c-8.476,5.133-21.963,4.946-30.128-0.416c-8.166-5.362-7.911-13.868,0.563-18.998
			C676.307,91.651,689.795,91.839,697.96,97.201z"/>
		<path fill="none" stroke="#F4F4F4" stroke-width="0.5" stroke-miterlimit="10" d="M697.96-30.71
			c8.164,5.362,7.912,13.867-0.56,18.998c-8.476,5.131-21.963,4.947-30.128-0.415c-8.166-5.361-7.911-13.869,0.563-18.999
			C676.307-36.257,689.795-36.071,697.96-30.71z"/>
		
			<line fill="none" stroke="#F4F4F4" stroke-width="0.5" stroke-miterlimit="10" x1="703.922" y1="-21.418" x2="703.922" y2="106.491"/>
		
			<line fill="none" stroke="#F4F4F4" stroke-width="0.5" stroke-miterlimit="10" x1="661.31" y1="-21.418" x2="661.31" y2="106.491"/>
	</g>
	<g>
		<g>
			<path fill="none" stroke="#F4F4F4" stroke-width="0.5" stroke-miterlimit="10" d="M791.217,126.268
				c8.165,5.36,7.912,13.866-0.561,18.997c-8.475,5.132-21.962,4.945-30.127-0.417c-8.165-5.361-7.912-13.867,0.562-18.997
				C769.564,120.72,783.052,120.907,791.217,126.268z"/>
			<path fill="none" stroke="#F4F4F4" stroke-width="0.5" stroke-miterlimit="10" d="M791.217-1.642
				c8.165,5.361,7.912,13.866-0.561,18.998c-8.475,5.131-21.962,4.947-30.127-0.415c-8.165-5.362-7.912-13.869,0.562-18.999
				C769.564-7.189,783.052-7.003,791.217-1.642z"/>
			
				<line fill="none" stroke="#F4F4F4" stroke-width="0.5" stroke-miterlimit="10" x1="797.179" y1="7.65" x2="797.179" y2="135.558"/>
			
				<line fill="none" stroke="#F4F4F4" stroke-width="0.5" stroke-miterlimit="10" x1="754.567" y1="7.65" x2="754.567" y2="135.558"/>
		</g>
		<polyline fill="none" stroke="#F4F4F4" stroke-width="0.5" stroke-miterlimit="10" points="764.674,146.988 851.16,181.36 
			851.16,53.472 764.674,19.1 		"/>
	</g>
	<polyline fill="none" stroke="#F4F4F4" stroke-width="0.5" stroke-miterlimit="10" points="962.958,130.195 876.471,95.823 
		988.839,38.5 1075.322,72.87 962.956,130.195 	"/>
	<path fill="none" stroke="#F4F4F4" stroke-width="0.5" stroke-miterlimit="10" d="M1005.421,232.164"/>
	<polyline fill="none" stroke="#F4F4F4" stroke-width="0.5" stroke-miterlimit="10" points="1007.039,238.206 1061.909,210.336 
		975.422,175.964 920.817,203.701 	"/>
	<circle fill="none" stroke="#F4F4F4" stroke-width="0.5" stroke-miterlimit="10" cx="997.646" cy="221.175" r="19.361"/>
	
		<line fill="none" stroke="#F4F4F4" stroke-width="0.5" stroke-miterlimit="10" x1="918.644" y1="168.945" x2="1005.126" y2="203.315"/>
	
		<line fill="none" stroke="#F4F4F4" stroke-width="0.5" stroke-miterlimit="10" x1="903.848" y1="204.885" x2="990.331" y2="239.255"/>
	<path fill="none" stroke="#F4F4F4" stroke-width="0.5" stroke-miterlimit="10" d="M928.324,178.098
		c4.855,9.527,1.065,21.185-8.459,26.04c-9.529,4.854-21.188,1.067-26.039-8.46c-4.856-9.527-1.068-21.186,8.459-26.04
		C911.812,164.783,923.471,168.571,928.324,178.098z"/>
	<path fill="none" stroke="#F4F4F4" stroke-width="0.5" stroke-miterlimit="10" d="M1210.513,121.094"/>
	<g>
		
			<line fill="none" stroke="#F4F4F4" stroke-width="0.5" stroke-miterlimit="10" x1="1154.377" y1="87.475" x2="1154.377" y2="215.384"/>
		
			<line fill="none" stroke="#F4F4F4" stroke-width="0.5" stroke-miterlimit="10" x1="1111.765" y1="87.475" x2="1111.765" y2="215.384"/>
		<g>
			<path fill="none" stroke="#F4F4F4" stroke-width="0.5" stroke-miterlimit="10" d="M1099.13,225.982"/>
			<path fill="none" stroke="#F4F4F4" stroke-width="0.5" stroke-miterlimit="10" d="M1123.386,216.369"/>
			<path fill="none" stroke="#F4F4F4" stroke-width="0.5" stroke-miterlimit="10" d="M1099.132,249.939l-0.002-127.944
				l48.545-24.696c8.472-5.131,8.904-13.754,0.74-19.116c-8.165-5.361-21.651-5.547-30.124-0.416
				c-8.475,5.129-8.729,13.637-0.564,18.999c3.063,2.011,6.874,3.293,10.887,3.84l0.005,127.926
				c-4.018-0.546-7.826-1.846-10.892-3.858c-8.164-5.361-7.91-13.867,0.564-18.997c8.473-5.131,21.959-4.945,30.124,0.417
				c8.164,5.36,7.912,13.866-0.56,18.997l-48.726,24.849"/>
		</g>
	</g>
	<path fill="none" stroke="#F4F4F4" stroke-width="0.5" stroke-miterlimit="10" d="M914.233,518.07"/>
	<path fill="none" stroke="#F4F4F4" stroke-width="0.5" stroke-miterlimit="10" d="M1003.969,472.353"/>
	<g>
		<path fill="none" stroke="#F4F4F4" stroke-width="0.5" stroke-miterlimit="10" d="M914.23,494.113"/>
		<path fill="none" stroke="#F4F4F4" stroke-width="0.5" stroke-miterlimit="10" d="M977.756,464.175"/>
		<path fill="none" stroke="#F4F4F4" stroke-width="0.5" stroke-miterlimit="10" d="M914.233,518.07l-86.488-34.371l87.451-44.788
			c9.5-4.983,13.092-16.72,8.111-26.216c-4.981-9.495-16.718-13.158-26.213-8.176c-9.496,4.979-13.159,16.713-8.181,26.214
			l86.483,34.366c-4.979-9.495-1.315-21.232,8.178-26.211c9.498-4.98,21.234-1.322,26.216,8.176
			c4.98,9.498,1.389,21.235-8.111,26.216l-87.449,44.79"/>
		
			<line fill="none" stroke="#F4F4F4" stroke-width="0.5" stroke-miterlimit="10" x1="912.811" y1="403.414" x2="999.294" y2="437.783"/>
	</g>
	<g>
		<path fill="none" stroke="#F4F4F4" stroke-width="0.5" stroke-miterlimit="10" d="M1268.716,283.332"/>
		<path fill="none" stroke="#F4F4F4" stroke-width="0.5" stroke-miterlimit="10" d="M1332.241,253.393"/>
		<path fill="none" stroke="#F4F4F4" stroke-width="0.5" stroke-miterlimit="10" d="M1268.716,307.289l-86.485-34.373l87.451-44.788
			c9.5-4.981,13.092-16.718,8.111-26.215c-4.981-9.496-16.718-13.157-26.216-8.176c-9.493,4.979-13.156,16.715-8.178,26.212
			l86.483,34.37c-4.979-9.497-1.316-21.233,8.178-26.213c9.498-4.98,21.234-1.32,26.215,8.176
			c4.981,9.498,1.387,21.234-8.111,26.215L1268.716,307.289"/>
		
			<line fill="none" stroke="#F4F4F4" stroke-width="0.5" stroke-miterlimit="10" x1="1267.296" y1="192.632" x2="1353.779" y2="227.002"/>
	</g>
	<path fill="none" stroke="#F4F4F4" stroke-width="0.5" stroke-miterlimit="10" d="M1124.271,542.466"/>
	<path fill="none" stroke="#F4F4F4" stroke-width="0.5" stroke-miterlimit="10" d="M1124.271,566.423"/>
	
		<line fill="none" stroke="#F4F4F4" stroke-width="0.5" stroke-miterlimit="10" x1="1165.992" y1="545.057" x2="1124.271" y2="566.423"/>
	<polyline fill="none" stroke="#F4F4F4" stroke-width="0.5" stroke-miterlimit="10" points="1124.271,566.423 1037.785,532.052 
		1079.769,510.552 	"/>
	<path fill="none" stroke="#F4F4F4" stroke-width="0.5" stroke-miterlimit="10" d="M1174.225,519.107
		c4.854,9.526,1.065,21.185-8.462,26.036c-9.526,4.856-21.186,1.068-26.039-8.459c-4.856-9.526-1.067-21.185,8.462-26.039
		C1157.71,505.792,1169.368,509.58,1174.225,519.107z"/>
	
		<line fill="none" stroke="#F4F4F4" stroke-width="0.5" stroke-miterlimit="10" x1="1077.969" y1="475.666" x2="1164.452" y2="510.035"/>
	
		<line fill="none" stroke="#F4F4F4" stroke-width="0.5" stroke-miterlimit="10" x1="1063.174" y1="511.606" x2="1149.656" y2="545.974"/>
	<circle fill="none" stroke="#F4F4F4" stroke-width="0.5" stroke-miterlimit="10" cx="1070.402" cy="493.608" r="19.361"/>
	<path fill="none" stroke="#F4F4F4" stroke-width="0.5" stroke-miterlimit="10" d="M938.38,354.413"/>
	<path fill="none" stroke="#F4F4F4" stroke-width="0.5" stroke-miterlimit="10" d="M955.674,378.369"/>
	<line fill="none" stroke="#F4F4F4" stroke-width="0.5" stroke-miterlimit="10" x1="980.1" y1="357.001" x2="938.38" y2="378.369"/>
	<polyline fill="none" stroke="#F4F4F4" stroke-width="0.5" stroke-miterlimit="10" points="938.38,378.369 851.895,343.997 
		893.877,322.496 	"/>
	<circle fill="none" stroke="#F4F4F4" stroke-width="0.5" stroke-miterlimit="10" cx="971.083" cy="339.84" r="19.36"/>
	
		<line fill="none" stroke="#F4F4F4" stroke-width="0.5" stroke-miterlimit="10" x1="892.078" y1="287.611" x2="978.561" y2="321.981"/>
	
		<line fill="none" stroke="#F4F4F4" stroke-width="0.5" stroke-miterlimit="10" x1="877.282" y1="323.55" x2="963.766" y2="357.922"/>
	<circle fill="none" stroke="#F4F4F4" stroke-width="0.5" stroke-miterlimit="10" cx="884.511" cy="305.553" r="19.36"/>
	<g>
		<path fill="none" stroke="#F4F4F4" stroke-width="0.5" stroke-miterlimit="10" d="M1066.382,398.54
			c8.165,5.36,7.91,13.868-0.562,18.996c-8.475,5.133-21.962,4.948-30.127-0.415c-8.164-5.361-7.912-13.869,0.562-18.998
			C1044.729,392.993,1058.217,393.18,1066.382,398.54z"/>
		<path fill="none" stroke="#F4F4F4" stroke-width="0.5" stroke-miterlimit="10" d="M1066.382,270.63
			c8.165,5.362,7.91,13.866-0.562,18.998c-8.475,5.131-21.962,4.946-30.127-0.415c-8.164-5.361-7.912-13.869,0.562-19
			C1044.729,265.083,1058.217,265.269,1066.382,270.63z"/>
		
			<line fill="none" stroke="#F4F4F4" stroke-width="0.5" stroke-miterlimit="10" x1="1072.344" y1="279.922" x2="1072.344" y2="407.828"/>
		
			<line fill="none" stroke="#F4F4F4" stroke-width="0.5" stroke-miterlimit="10" x1="1029.732" y1="279.922" x2="1029.732" y2="407.828"/>
	</g>
	<g>
		<g>
			<path fill="none" stroke="#F4F4F4" stroke-width="0.5" stroke-miterlimit="10" d="M1159.639,427.609
				c8.164,5.357,7.91,13.865-0.562,18.994c-8.475,5.135-21.961,4.947-30.126-0.415c-8.164-5.36-7.913-13.868,0.562-18.996
				C1137.984,422.061,1151.474,422.248,1159.639,427.609z"/>
			<path fill="none" stroke="#F4F4F4" stroke-width="0.5" stroke-miterlimit="10" d="M1159.639,299.698
				c8.164,5.361,7.91,13.866-0.562,18.998c-8.475,5.131-21.961,4.947-30.126-0.415c-8.164-5.362-7.913-13.869,0.562-18.999
				C1137.984,294.151,1151.474,294.337,1159.639,299.698z"/>
			
				<line fill="none" stroke="#F4F4F4" stroke-width="0.5" stroke-miterlimit="10" x1="1165.601" y1="308.99" x2="1165.601" y2="436.898"/>
			
				<line fill="none" stroke="#F4F4F4" stroke-width="0.5" stroke-miterlimit="10" x1="1122.988" y1="308.99" x2="1122.988" y2="436.898"/>
		</g>
		<polyline fill="none" stroke="#F4F4F4" stroke-width="0.5" stroke-miterlimit="10" points="1133.096,448.329 1219.583,482.7 
			1219.583,354.814 1133.096,320.44 		"/>
	</g>
	<polyline fill="none" stroke="#F4F4F4" stroke-width="0.5" stroke-miterlimit="10" points="1331.378,431.535 1244.891,397.165 
		1357.262,339.841 1443.744,374.211 1331.376,431.535 	"/>
	<path fill="none" stroke="#F4F4F4" stroke-width="0.5" stroke-miterlimit="10" d="M1373.841,533.503"/>
	<polyline fill="none" stroke="#F4F4F4" stroke-width="0.5" stroke-miterlimit="10" points="1375.462,539.546 1430.329,511.676 
		1343.842,477.303 1289.239,505.041 	"/>
	<path fill="none" stroke="#F4F4F4" stroke-width="0.5" stroke-miterlimit="10" d="M1383.316,513.725
		c4.855,9.527,1.065,21.186-8.459,26.042c-9.529,4.852-21.188,1.065-26.041-8.462c-4.854-9.526-1.066-21.186,8.461-26.039
		C1366.804,500.41,1378.463,504.198,1383.316,513.725z"/>
	
		<line fill="none" stroke="#F4F4F4" stroke-width="0.5" stroke-miterlimit="10" x1="1287.063" y1="470.286" x2="1373.547" y2="504.657"/>
	
		<line fill="none" stroke="#F4F4F4" stroke-width="0.5" stroke-miterlimit="10" x1="1272.268" y1="506.225" x2="1358.751" y2="540.596"/>
	<circle fill="none" stroke="#F4F4F4" stroke-width="0.5" stroke-miterlimit="10" cx="1279.496" cy="488.228" r="19.36"/>
	<g>
		
			<line fill="none" stroke="#F4F4F4" stroke-width="0.5" stroke-miterlimit="10" x1="1522.799" y1="388.815" x2="1522.799" y2="516.724"/>
		
			<line fill="none" stroke="#F4F4F4" stroke-width="0.5" stroke-miterlimit="10" x1="1480.188" y1="388.815" x2="1480.188" y2="516.724"/>
		<g>
			<path fill="none" stroke="#F4F4F4" stroke-width="0.5" stroke-miterlimit="10" d="M1467.55,527.323"/>
			<path fill="none" stroke="#F4F4F4" stroke-width="0.5" stroke-miterlimit="10" d="M1491.806,517.709"/>
			<path fill="none" stroke="#F4F4F4" stroke-width="0.5" stroke-miterlimit="10" d="M1467.552,551.279l-0.002-127.943
				l48.545-24.695c8.472-5.132,8.907-13.756,0.742-19.116c-8.165-5.362-21.653-5.547-30.126-0.415
				c-8.475,5.128-8.727,13.636-0.562,18.996c3.062,2.011,6.872,3.293,10.886,3.842l0.007,127.927
				c-4.019-0.547-7.828-1.847-10.893-3.859c-8.164-5.362-7.912-13.868,0.562-18.999c8.473-5.132,21.961-4.945,30.126,0.417
				s7.91,13.866-0.562,18.998l-48.726,24.849"/>
		</g>
	</g>
	<path fill="none" stroke="#F4F4F4" stroke-width="0.5" stroke-miterlimit="10" d="M280.955,381.903"/>
	<path fill="none" stroke="#F4F4F4" stroke-width="0.5" stroke-miterlimit="10" d="M401.255,452.02"/>
	<path fill="none" stroke="#F4F4F4" stroke-width="0.5" stroke-miterlimit="10" d="M401.257,475.976"/>
	
		<line fill="none" stroke="#F4F4F4" stroke-width="0.5" stroke-miterlimit="10" x1="442.978" y1="454.605" x2="401.255" y2="475.976"/>
	<polyline fill="none" stroke="#F4F4F4" stroke-width="0.5" stroke-miterlimit="10" points="401.257,475.976 314.77,441.603 
		356.755,420.1 	"/>
	<circle fill="none" stroke="#F4F4F4" stroke-width="0.5" stroke-miterlimit="10" cx="433.959" cy="437.445" r="19.36"/>
	
		<line fill="none" stroke="#F4F4F4" stroke-width="0.5" stroke-miterlimit="10" x1="354.956" y1="385.216" x2="441.438" y2="419.588"/>
	
		<line fill="none" stroke="#F4F4F4" stroke-width="0.5" stroke-miterlimit="10" x1="340.16" y1="421.154" x2="426.643" y2="455.526"/>
	<circle fill="none" stroke="#F4F4F4" stroke-width="0.5" stroke-miterlimit="10" cx="347.388" cy="403.158" r="19.36"/>
	<path fill="none" stroke="#F4F4F4" stroke-width="0.5" stroke-miterlimit="10" d="M215.364,263.963"/>
	<path fill="none" stroke="#F4F4F4" stroke-width="0.5" stroke-miterlimit="10" d="M232.66,287.92"/>
	
		<line fill="none" stroke="#F4F4F4" stroke-width="0.5" stroke-miterlimit="10" x1="257.086" y1="266.551" x2="215.364" y2="287.92"/>
	<polyline fill="none" stroke="#F4F4F4" stroke-width="0.5" stroke-miterlimit="10" points="215.366,287.92 128.879,253.547 
		170.864,232.046 	"/>
	<circle fill="none" stroke="#F4F4F4" stroke-width="0.5" stroke-miterlimit="10" cx="248.068" cy="249.391" r="19.36"/>
	
		<line fill="none" stroke="#F4F4F4" stroke-width="0.5" stroke-miterlimit="10" x1="169.064" y1="197.161" x2="255.547" y2="231.531"/>
	
		<line fill="none" stroke="#F4F4F4" stroke-width="0.5" stroke-miterlimit="10" x1="154.269" y1="233.101" x2="240.751" y2="267.471"/>
	<circle fill="none" stroke="#F4F4F4" stroke-width="0.5" stroke-miterlimit="10" cx="161.496" cy="215.103" r="19.36"/>
	<g>
		<path fill="none" stroke="#F4F4F4" stroke-width="0.5" stroke-miterlimit="10" d="M343.367,308.091
			c8.165,5.36,7.912,13.866-0.56,18.996c-8.475,5.132-21.963,4.945-30.128-0.416c-8.165-5.361-7.912-13.867,0.563-18.998
			C321.714,302.542,335.202,302.729,343.367,308.091z"/>
		<path fill="none" stroke="#F4F4F4" stroke-width="0.5" stroke-miterlimit="10" d="M343.367,180.18
			c8.165,5.362,7.912,13.867-0.56,18.998c-8.475,5.131-21.963,4.947-30.128-0.415c-8.165-5.361-7.912-13.868,0.563-18.999
			C321.714,174.633,335.202,174.819,343.367,180.18z"/>
		
			<line fill="none" stroke="#F4F4F4" stroke-width="0.5" stroke-miterlimit="10" x1="349.329" y1="189.472" x2="349.329" y2="317.381"/>
		
			<line fill="none" stroke="#F4F4F4" stroke-width="0.5" stroke-miterlimit="10" x1="306.717" y1="189.472" x2="306.717" y2="317.381"/>
	</g>
	<g>
		<g>
			<path fill="none" stroke="#F4F4F4" stroke-width="0.5" stroke-miterlimit="10" d="M436.624,337.158
				c8.165,5.362,7.912,13.866-0.561,18.998c-8.475,5.13-21.962,4.943-30.127-0.417c-8.165-5.362-7.912-13.868,0.563-18.999
				C414.97,331.609,428.458,331.797,436.624,337.158z"/>
			<path fill="none" stroke="#F4F4F4" stroke-width="0.5" stroke-miterlimit="10" d="M436.624,209.249
				c8.165,5.362,7.912,13.866-0.561,18.998c-8.475,5.131-21.962,4.947-30.127-0.415c-8.165-5.362-7.912-13.869,0.563-18.999
				C414.97,203.701,428.458,203.888,436.624,209.249z"/>
			
				<line fill="none" stroke="#F4F4F4" stroke-width="0.5" stroke-miterlimit="10" x1="442.585" y1="218.54" x2="442.585" y2="346.45"/>
			
				<line fill="none" stroke="#F4F4F4" stroke-width="0.5" stroke-miterlimit="10" x1="399.974" y1="218.54" x2="399.974" y2="346.45"/>
		</g>
		<polyline fill="none" stroke="#F4F4F4" stroke-width="0.5" stroke-miterlimit="10" points="410.081,357.877 496.567,392.25 
			496.567,264.362 410.081,229.99 		"/>
	</g>
	<polyline fill="none" stroke="#F4F4F4" stroke-width="0.5" stroke-miterlimit="10" points="608.364,341.085 521.877,306.713 
		634.247,249.391 720.73,283.761 608.363,341.085 	"/>
	<path fill="none" stroke="#F4F4F4" stroke-width="0.5" stroke-miterlimit="10" d="M650.826,443.054"/>
	<polyline fill="none" stroke="#F4F4F4" stroke-width="0.5" stroke-miterlimit="10" points="652.447,449.098 707.314,421.227 
		620.827,386.855 566.224,414.594 	"/>
	<circle fill="none" stroke="#F4F4F4" stroke-width="0.5" stroke-miterlimit="10" cx="643.052" cy="432.066" r="19.36"/>
	
		<line fill="none" stroke="#F4F4F4" stroke-width="0.5" stroke-miterlimit="10" x1="564.049" y1="379.836" x2="650.532" y2="414.205"/>
	
		<line fill="none" stroke="#F4F4F4" stroke-width="0.5" stroke-miterlimit="10" x1="549.253" y1="415.775" x2="635.736" y2="450.145"/>
	<circle fill="none" stroke="#F4F4F4" stroke-width="0.5" stroke-miterlimit="10" cx="556.482" cy="397.778" r="19.36"/>
	<path fill="none" stroke="#F4F4F4" stroke-width="0.5" stroke-miterlimit="10" d="M855.918,331.983"/>
	<g>
		
			<line fill="none" stroke="#F4F4F4" stroke-width="0.5" stroke-miterlimit="10" x1="799.784" y1="298.365" x2="799.784" y2="426.273"/>
		
			<line fill="none" stroke="#F4F4F4" stroke-width="0.5" stroke-miterlimit="10" x1="757.173" y1="298.365" x2="757.173" y2="426.273"/>
		<g>
			<path fill="none" stroke="#F4F4F4" stroke-width="0.5" stroke-miterlimit="10" d="M744.535,436.873"/>
			<path fill="none" stroke="#F4F4F4" stroke-width="0.5" stroke-miterlimit="10" d="M768.791,427.26"/>
			<path fill="none" stroke="#F4F4F4" stroke-width="0.5" stroke-miterlimit="10" d="M744.538,460.83l-0.003-127.944l48.545-24.697
				c8.473-5.131,8.907-13.754,0.742-19.115c-8.164-5.362-21.653-5.547-30.126-0.416c-8.475,5.13-8.727,13.637-0.562,18.999
				c3.062,2.01,6.871,3.292,10.885,3.84l0.006,127.925c-4.017-0.547-7.827-1.846-10.891-3.857
				c-8.165-5.361-7.913-13.867,0.562-18.998c8.473-5.131,21.962-4.943,30.126,0.419c8.165,5.358,7.911,13.866-0.561,18.994
				l-48.727,24.851"/>
		</g>
	</g>
	<path fill="none" stroke="#F4F4F4" stroke-width="0.5" stroke-miterlimit="10" d="M769.676,753.357"/>
	<path fill="none" stroke="#F4F4F4" stroke-width="0.5" stroke-miterlimit="10" d="M769.679,777.314"/>
	
		<line fill="none" stroke="#F4F4F4" stroke-width="0.5" stroke-miterlimit="10" x1="811.398" y1="755.946" x2="769.676" y2="777.314"/>
	<polyline fill="none" stroke="#F4F4F4" stroke-width="0.5" stroke-miterlimit="10" points="769.679,777.314 683.19,742.943 
		725.176,721.441 	"/>
	<circle fill="none" stroke="#F4F4F4" stroke-width="0.5" stroke-miterlimit="10" cx="802.379" cy="738.786" r="19.361"/>
	
		<line fill="none" stroke="#F4F4F4" stroke-width="0.5" stroke-miterlimit="10" x1="723.377" y1="686.558" x2="809.859" y2="720.926"/>
	
		<line fill="none" stroke="#F4F4F4" stroke-width="0.5" stroke-miterlimit="10" x1="708.581" y1="722.496" x2="795.064" y2="756.865"/>
	<circle fill="none" stroke="#F4F4F4" stroke-width="0.5" stroke-miterlimit="10" cx="715.809" cy="704.499" r="19.36"/>
	<path fill="none" stroke="#F4F4F4" stroke-width="0.5" stroke-miterlimit="10" d="M583.785,565.304"/>
	<path fill="none" stroke="#F4F4F4" stroke-width="0.5" stroke-miterlimit="10" d="M601.08,589.261"/>
	
		<line fill="none" stroke="#F4F4F4" stroke-width="0.5" stroke-miterlimit="10" x1="625.507" y1="567.891" x2="583.785" y2="589.261"/>
	<polyline fill="none" stroke="#F4F4F4" stroke-width="0.5" stroke-miterlimit="10" points="583.786,589.261 497.3,554.888 
		539.285,533.385 	"/>
	<circle fill="none" stroke="#F4F4F4" stroke-width="0.5" stroke-miterlimit="10" cx="616.489" cy="550.73" r="19.361"/>
	
		<line fill="none" stroke="#F4F4F4" stroke-width="0.5" stroke-miterlimit="10" x1="537.485" y1="498.501" x2="623.968" y2="532.872"/>
	
		<line fill="none" stroke="#F4F4F4" stroke-width="0.5" stroke-miterlimit="10" x1="522.689" y1="534.439" x2="609.172" y2="568.811"/>
	<circle fill="none" stroke="#F4F4F4" stroke-width="0.5" stroke-miterlimit="10" cx="529.917" cy="516.442" r="19.36"/>
	<g>
		<path fill="none" stroke="#F4F4F4" stroke-width="0.5" stroke-miterlimit="10" d="M711.787,609.432
			c8.165,5.357,7.912,13.866-0.56,18.994c-8.475,5.135-21.964,4.947-30.128-0.415c-8.165-5.36-7.912-13.868,0.562-18.996
			C690.134,603.882,703.623,604.069,711.787,609.432z"/>
		<path fill="none" stroke="#F4F4F4" stroke-width="0.5" stroke-miterlimit="10" d="M711.787,481.521
			c8.165,5.362,7.912,13.866-0.56,18.998c-8.475,5.131-21.964,4.948-30.128-0.414c-8.165-5.362-7.912-13.868,0.562-19.001
			C690.134,475.974,703.623,476.161,711.787,481.521z"/>
		
			<line fill="none" stroke="#F4F4F4" stroke-width="0.5" stroke-miterlimit="10" x1="717.749" y1="490.813" x2="717.749" y2="618.72"/>
		
			<line fill="none" stroke="#F4F4F4" stroke-width="0.5" stroke-miterlimit="10" x1="675.138" y1="490.813" x2="675.138" y2="618.72"/>
	</g>
	<g>
		<g>
			<path fill="none" stroke="#F4F4F4" stroke-width="0.5" stroke-miterlimit="10" d="M805.044,638.499
				c8.165,5.359,7.913,13.865-0.56,18.996c-8.475,5.132-21.964,4.944-30.128-0.415c-8.165-5.362-7.912-13.87,0.562-18.998
				C783.391,632.951,796.879,633.139,805.044,638.499z"/>
			<path fill="none" stroke="#F4F4F4" stroke-width="0.5" stroke-miterlimit="10" d="M805.044,510.59
				c8.165,5.36,7.913,13.866-0.56,18.996c-8.475,5.133-21.964,4.947-30.128-0.415c-8.165-5.359-7.912-13.867,0.562-19
				C783.391,505.041,796.879,505.228,805.044,510.59z"/>
			
				<line fill="none" stroke="#F4F4F4" stroke-width="0.5" stroke-miterlimit="10" x1="811.006" y1="519.881" x2="811.006" y2="647.787"/>
			
				<line fill="none" stroke="#F4F4F4" stroke-width="0.5" stroke-miterlimit="10" x1="768.395" y1="519.881" x2="768.395" y2="647.787"/>
		</g>
		<polyline fill="none" stroke="#F4F4F4" stroke-width="0.5" stroke-miterlimit="10" points="778.501,659.218 864.988,693.589 
			864.988,565.703 778.501,531.329 		"/>
	</g>
	<polyline fill="none" stroke="#F4F4F4" stroke-width="0.5" stroke-miterlimit="10" points="976.784,642.427 890.299,608.054 
		1002.667,550.731 1089.15,585.101 976.784,642.427 	"/>
	<path fill="none" stroke="#F4F4F4" stroke-width="0.5" stroke-miterlimit="10" d="M1019.246,744.395"/>
	<polyline fill="none" stroke="#F4F4F4" stroke-width="0.5" stroke-miterlimit="10" points="1020.867,750.437 1075.734,722.567 
		989.25,688.193 934.645,715.932 	"/>
	<circle fill="none" stroke="#F4F4F4" stroke-width="0.5" stroke-miterlimit="10" cx="1011.474" cy="733.405" r="19.36"/>
	
		<line fill="none" stroke="#F4F4F4" stroke-width="0.5" stroke-miterlimit="10" x1="932.469" y1="681.175" x2="1018.952" y2="715.546"/>
	
		<line fill="none" stroke="#F4F4F4" stroke-width="0.5" stroke-miterlimit="10" x1="917.674" y1="717.113" x2="1004.156" y2="751.484"/>
	<path fill="none" stroke="#F4F4F4" stroke-width="0.5" stroke-miterlimit="10" d="M942.152,690.327
		c4.854,9.527,1.065,21.186-8.462,26.042c-9.526,4.852-21.186,1.065-26.039-8.464c-4.856-9.524-1.065-21.183,8.461-26.037
		C925.64,677.013,937.298,680.801,942.152,690.327z"/>
	<path fill="none" stroke="#F4F4F4" stroke-width="0.5" stroke-miterlimit="10" d="M1224.341,633.324"/>
	<g>
		
			<line fill="none" stroke="#F4F4F4" stroke-width="0.5" stroke-miterlimit="10" x1="1168.204" y1="599.704" x2="1168.204" y2="727.615"/>
		
			<line fill="none" stroke="#F4F4F4" stroke-width="0.5" stroke-miterlimit="10" x1="1125.593" y1="599.704" x2="1125.593" y2="727.615"/>
		<g>
			<path fill="none" stroke="#F4F4F4" stroke-width="0.5" stroke-miterlimit="10" d="M1112.958,738.214"/>
			<path fill="none" stroke="#F4F4F4" stroke-width="0.5" stroke-miterlimit="10" d="M1137.211,728.599"/>
			<path fill="none" stroke="#F4F4F4" stroke-width="0.5" stroke-miterlimit="10" d="M1112.958,762.171V634.225l48.544-24.695
				c8.473-5.13,8.905-13.754,0.74-19.116c-8.164-5.362-21.653-5.545-30.126-0.414c-8.472,5.128-8.727,13.636-0.562,18.998
				c3.063,2.009,6.874,3.293,10.887,3.842l0.005,127.924c-4.018-0.546-7.828-1.846-10.892-3.859
				c-8.165-5.362-7.91-13.866,0.562-18.998c8.473-5.131,21.962-4.943,30.126,0.419c8.165,5.36,7.913,13.866-0.56,18.996
				L1112.958,762.171"/>
		</g>
	</g>
</g>
</svg>
